<?xml version="1.0" encoding="UTF-8" standalone="no"?>
<!DOCTYPE svg PUBLIC "-//W3C//DTD SVG 1.1//EN" "http://www.w3.org/Graphics/SVG/1.1/DTD/svg11.dtd">
<svg width="100%" height="100%" viewBox="0 0 500 500" version="1.1" xmlns="http://www.w3.org/2000/svg" xmlns:xlink="http://www.w3.org/1999/xlink" xml:space="preserve" xmlns:serif="http://www.serif.com/" style="fill-rule:evenodd;clip-rule:evenodd;stroke-linejoin:round;stroke-miterlimit:2;">
    <g transform="matrix(2.5,0,0,2.5,-395,-12.5)">
        <path d="M258,105C313.192,105 358,149.808 358,205C358,260.192 313.192,305 258,305C202.808,305 158,260.192 158,205C158,149.808 202.808,105 258,105ZM258,121.667C303.993,121.667 341.333,159.007 341.333,205C341.333,250.993 303.993,288.333 258,288.333C212.007,288.333 174.667,250.993 174.667,205C174.667,159.007 212.007,121.667 258,121.667Z"/>
    </g>
    <g transform="matrix(1.25,0,0,1.25,-72.5,-131.25)">
        <path d="M258,105C313.192,105 358,149.808 358,205C358,260.192 313.192,305 258,305C202.808,305 158,260.192 158,205C158,149.808 202.808,105 258,105ZM258,138.333C294.794,138.333 324.667,168.206 324.667,205C324.667,241.794 294.794,271.667 258,271.667C221.206,271.667 191.333,241.794 191.333,205C191.333,168.206 221.206,138.333 258,138.333Z"/>
    </g>
</svg>
