<svg width="16" height="16" viewBox="0 0 16 16" fill="none" xmlns="http://www.w3.org/2000/svg">
<path d="M11.3013 0.5L4.58026 0.5C2.29783 0.5 0.440918 2.357 0.440918 4.63943L0.440918 11.3605C0.440918 13.643 2.29783 15.4999 4.58026 15.4999H11.3013C13.5839 15.4999 15.4408 13.6429 15.4408 11.3605V4.63943C15.4409 2.357 13.5839 0.5 11.3013 0.5ZM14.1101 11.3605C14.1101 12.9092 12.8501 14.169 11.3014 14.169H4.58026C3.03167 14.1691 1.77178 12.9092 1.77178 11.3605L1.77178 4.63943C1.77178 3.09084 3.03167 1.83086 4.58026 1.83086L11.3013 1.83086C12.85 1.83086 14.11 3.09084 14.11 4.63943V11.3605H14.1101Z" fill="#ECF4FF"/>
<path d="M7.94078 4.13525C5.80953 4.13525 4.07568 5.8691 4.07568 8.00035C4.07568 10.1315 5.80953 11.8653 7.94078 11.8653C10.072 11.8653 11.8059 10.1315 11.8059 8.00035C11.8059 5.8691 10.072 4.13525 7.94078 4.13525ZM7.94078 10.5343C6.54346 10.5343 5.40655 9.39758 5.40655 8.00026C5.40655 6.60285 6.54337 5.46603 7.94078 5.46603C9.33819 5.46603 10.475 6.60285 10.475 8.00026C10.475 9.39758 9.3381 10.5343 7.94078 10.5343Z" fill="#ECF4FF"/>
<path d="M11.9682 3.00635C11.7117 3.00635 11.4599 3.11016 11.2788 3.29204C11.0968 3.47304 10.9922 3.72501 10.9922 3.98232C10.9922 4.23882 11.0969 4.49071 11.2788 4.67259C11.4598 4.85359 11.7117 4.95828 11.9682 4.95828C12.2255 4.95828 12.4765 4.85359 12.6584 4.67259C12.8403 4.49071 12.9441 4.23873 12.9441 3.98232C12.9441 3.72501 12.8403 3.47304 12.6584 3.29204C12.4774 3.11016 12.2255 3.00635 11.9682 3.00635Z" fill="#ECF4FF"/>
</svg>
