<?xml version="1.0" encoding="UTF-8" standalone="no"?>
<!DOCTYPE svg PUBLIC "-//W3C//DTD SVG 1.1//EN" "http://www.w3.org/Graphics/SVG/1.1/DTD/svg11.dtd">
<svg width="100%" height="100%" viewBox="0 0 2550 2550" version="1.1" xmlns="http://www.w3.org/2000/svg" xmlns:xlink="http://www.w3.org/1999/xlink" xml:space="preserve" xmlns:serif="http://www.serif.com/" style="fill-rule:evenodd;clip-rule:evenodd;stroke-linejoin:round;stroke-miterlimit:2;">
    <g id="Publicdomainvectors.org" transform="matrix(4.5477,0,0,4.5477,-217.528,-239.31)">
        <g transform="matrix(1,0,0,1,0,69.422)">
            <path d="M224.621,411.732C222.461,410.835 216.324,405.051 215.115,409.354C218.529,407.075 221.977,413.486 224.621,411.732M204.028,400.641C204.324,400.78 202.405,402.151 202.443,400.641C202.886,400.645 203.345,400.003 202.443,399.849C202.432,401.16 200.246,400.292 200.065,401.433C202.259,401.303 202.788,402.65 201.65,403.811C206.702,401.182 210.762,407.657 214.326,406.184C211.048,404.059 206.796,403.838 204.028,401.433C204.092,401.494 205.057,401.118 204.028,400.641M187.394,396.686C187.634,399.92 186.297,396.552 184.228,397.479C183.735,402.55 182.834,398.32 182.643,398.271C182.703,398.283 182.537,399.263 181.85,399.06C181.437,398.94 179.627,396.536 179.477,398.271C181.564,399.661 178.417,401.576 177.896,399.06C176.81,400.074 176.81,402.801 177.896,403.807C181.373,404.16 181.358,402.253 181.85,401.433C183.533,403.067 187.337,400.1 190.56,400.641C190.338,398.497 187.664,398.794 187.394,396.686M166.016,387.181C165.94,388.432 163.991,387.801 164.431,389.557C165.617,389.423 167.353,389.836 167.597,388.765C166.981,388.589 166.034,388.747 166.016,387.974C166.455,387.976 166.91,387.335 166.016,387.181M163.639,384.807C161.317,385.573 161.858,384.108 160.469,383.222C159.845,382.824 159.356,382.782 158.888,382.43C158.23,381.937 158.605,381.64 157.303,381.637C158.076,381.64 153.4,383.184 153.34,383.222C152.123,384.015 147,391.256 147.004,391.142C146.809,395.879 150.727,397.724 157.303,398.271C160.329,397.077 160.363,392.882 163.639,391.939C164.473,388.623 161.967,386.564 163.639,384.807M165.224,345.21C164.559,346.449 161.798,349.619 163.639,350.75C163.09,348.113 165.272,349.473 166.016,349.953C165.704,347.542 168.097,345.924 165.224,345.21M124.037,262.046C122.171,261.374 126.22,260.1 124.834,257.295C123.26,257.283 123.823,255.139 121.664,255.71C121.495,256.599 120.781,256.945 120.083,257.295C119.752,259.203 121.525,259.015 120.871,261.254C120.428,261.254 119.97,261.895 120.871,262.046C121.123,259.425 123.32,265.14 124.037,262.046M440.359,200.489C438.963,200.05 441.975,197.424 441.938,195.734C443.725,193.875 441.283,197.818 441.938,199.692C441.021,199.568 440.532,199.865 440.359,200.489M440.359,213.161C438.279,211.102 439.732,214.437 437.189,213.949L437.189,211.576C439.354,211.647 438.782,210.254 440.359,211.576L440.359,213.161ZM436.397,215.534C433.547,216.759 436.597,219.77 433.231,221.078C431.14,218.93 435.966,216.992 434.813,213.161C435.777,214.836 437.795,215.459 437.982,217.908C437.01,217.566 436.356,216.897 436.397,215.534M413.431,272.558C411.644,271.969 413.123,268.115 412.639,266.223C416.319,266.38 412.942,270.59 413.431,272.558M407.095,283.641C408.751,281.339 409.097,277.73 410.265,274.932C411.035,274.954 410.881,275.901 411.058,276.516C409.082,279.713 411.38,282.515 407.095,283.641M405.461,285.794C404.342,285.774 403.027,285.947 402.813,285.016C403.08,284.359 403.328,283.585 403.546,282.781C404.732,282.804 405.604,283.139 406.303,283.641C406.22,284.498 405.908,285.223 405.461,285.794M403.133,291.566L401.548,291.566C401.405,290.89 401.855,290.815 402.336,290.773C402.486,290.094 402.028,290.022 401.548,289.981C401.896,288.802 402.565,290.293 403.929,289.981C403.778,290.624 403.133,290.773 403.133,291.566M414.22,243.252C413.679,242.877 413.604,245.708 414.22,244.837C413.795,245.437 413.604,245.528 413.431,244.837C413.446,244.904 412.342,241.949 414.22,243.252M389.672,297.109C388.5,299.258 384.669,299.911 381.808,299.153C381.222,298.116 380.005,297.715 378.435,297.654C378.18,296.565 377.68,295.701 377.789,294.736C377.732,295.251 381.026,293.601 377.789,293.151C375.572,291.664 379.039,293.204 379.374,293.151C380.988,292.873 382.018,291.446 383.336,291.566C383.46,292.49 384.778,292.231 385.706,292.358C386.521,296.306 391.287,296.283 395.212,297.109C395.193,296.336 394.242,296.494 393.631,296.321C394.018,296.016 394.321,295.833 394.584,295.72C394.889,296.231 395.291,296.674 395.749,297.084C395.775,298.181 395.629,299.581 396.008,300.272C393.668,299.449 393.683,296.265 389.672,297.109M390.461,301.068C391.137,299.892 392.455,299.363 394.423,299.483C393.751,300.655 392.429,301.188 390.461,301.068M392.046,304.238C391.651,304.666 392.557,305.184 392.838,305.03C389.318,306.983 387.644,306.867 383.336,306.612C383.092,305.654 385.623,303.878 385.706,305.819C386.803,305.748 388.801,302.728 387.291,302.653C389.108,302.098 392.113,302.15 396.008,301.857C396.511,303.31 392.639,303.596 392.046,304.238M388.087,311.367C386.006,310.24 389.755,308.354 391.257,308.197C391.178,310.232 388.162,309.323 388.087,311.367M378.585,305.03C377.691,304.216 377.68,303.205 377.894,302.139C378.788,302.525 379.873,302.714 381.428,302.435C381.608,301.827 381.454,300.881 382.217,300.854C382.213,300.52 382.085,300.313 382.021,300.039C383.137,300.23 384.316,300.362 384.921,301.068C382.979,302.556 381.334,304.344 378.585,305.03M392.046,289.981C390.311,292.4 386.976,289.065 392.046,289.981M393.566,286.897C393.533,287.247 393.503,287.597 393.48,287.942C393.255,287.855 393.029,287.758 392.838,287.603C393.06,287.307 393.308,287.082 393.566,286.897M369.226,330.544C369.211,330.082 369.214,329.604 369.165,329.158C370.412,329.139 370.803,331.817 369.226,330.544M365.909,352.545C365.47,354.836 364.674,351.332 363.539,351.756C363.562,351.433 367.002,351.245 364.328,348.586C364.407,348.023 364.929,347.906 365.53,347.865C365.309,348.079 365.068,348.248 364.798,348.368C365.458,348.601 366.044,348.932 366.593,349.228C366.251,350.772 365.297,351.509 365.909,352.545M361.954,88.026C362.867,89.198 362.867,90.02 361.954,91.196C361.917,91.184 361.895,91.162 361.856,91.151C362.314,90.557 361.842,89.258 360.603,90.358C359.994,89.776 359.517,89.058 358.949,88.439C359.13,87.955 359.311,87.467 359.513,86.985C359.528,87.076 359.565,87.136 359.573,87.237C360.467,86.516 359.528,85.457 361.158,84.067C362.33,84.48 363.156,85.239 364.328,85.652C364.471,87.38 363.682,88.169 361.954,88.026M366.701,364.429C366.184,366.802 365.012,363.67 363.539,364.429C363.652,362.453 366.217,364.195 366.701,364.429M362.743,370.765C361.233,369.72 364.572,368.161 362.743,366.013C365.59,366.573 363.862,369.727 362.743,370.765M361.954,362.844C359.472,360.229 363.899,357.92 361.954,362.844M360.662,349.12C361.061,349.003 361.481,348.902 361.826,348.732C361.905,349.172 361.924,349.68 361.954,350.171C361.376,349.969 360.94,349.627 360.662,349.12M357.992,371.557C360.617,369.709 359.708,368.387 360.2,365.337C360.306,365.593 360.527,365.792 360.896,365.882C361.699,369.036 360.749,373.145 357.992,371.557M355.614,379.47C352.918,377.742 359.896,374.865 357.199,373.138C357.643,370.847 358.432,374.354 359.573,373.931C358.491,376.015 356.242,376.932 355.614,379.47M353.237,371.557C356.786,371.725 350.236,377.303 353.237,371.557M352.418,77.724C352.354,77.679 352.257,77.682 352.137,77.721L352.137,77.408C352.23,77.506 352.317,77.593 352.418,77.701L352.418,77.724ZM352.253,79.538C352.223,79.286 352.167,79.042 352.148,78.787C352.223,78.809 352.302,78.832 352.385,78.847C352.354,79.087 352.317,79.324 352.253,79.538M352.444,82.926C352.588,83.553 352.737,84.169 352.873,84.763C352.734,84.769 352.591,84.785 352.444,84.86L352.444,82.926ZM353.331,72.507C353.932,73.066 354.225,73.649 353.237,73.769C353.113,73.682 352.971,73.615 352.843,73.528C352.993,73.194 353.154,72.852 353.331,72.507M353.646,84.965C353.331,84.15 353.068,83.331 352.843,82.52C354.293,82.783 353.271,85.498 355.614,84.86C355.246,86.539 354.548,85.469 353.646,84.965M358.656,85.968C358.454,86.546 358.244,87.121 358.033,87.681C357.433,87.327 356.688,87.121 355.614,87.237C356.287,86.516 357.707,85.746 358.656,85.968M359.521,80.105C359.51,81.089 359.468,82.103 359.337,83.136C358.762,83.335 358.229,83.748 357.992,84.86C356.358,83.849 353.977,83.595 354.029,80.897C355.044,79.816 357.433,80.109 359.521,80.105M360.34,75.688C360.193,75.756 360.084,75.835 360.047,75.932C359.858,76.451 359.761,76.991 359.686,77.544C358.387,75.966 356.027,75.44 354.822,73.769C356.219,73.698 359.317,75.332 360.34,75.688M351.656,369.176C351.183,369.262 350.661,368.063 350.867,367.595C352.062,364.796 352.362,369.052 351.656,369.176M349.282,379.47C347.412,379.252 350.188,377.359 350.071,376.3C352.497,377.081 349.714,378.974 349.282,379.47M342.946,389.768C342.958,388.198 345.105,388.762 344.531,386.602C346.766,387.256 346.578,385.487 348.486,385.809C347.51,388.003 344.934,388.597 342.946,389.768M339.776,390.564C337.695,389.431 341.44,387.553 342.946,387.394C342.867,389.431 339.855,388.525 339.776,390.564M337.399,388.187C336.584,389.952 334.673,386.23 335.025,384.224C337.587,383.939 339.589,380.476 342.154,382.64C341.351,384.946 340.749,387.71 338.984,388.187C339.037,388.176 335.089,386.538 337.399,388.187M331.855,387.394C331.63,386.118 332.606,386.035 332.645,385.017L334.229,385.017C334.102,385.941 334.402,386.43 335.025,386.602C334.781,387.673 333.039,387.26 331.855,387.394M331.855,388.979C329.114,392.149 327.927,387.846 323.935,389.768C325.434,391.77 326.71,389.036 328.689,390.564C327.679,392.983 326.105,390.963 323.143,392.141C322.909,393.385 325.065,392.405 325.52,392.938C326.631,394.23 321.178,395.057 319.184,393.734C317.275,393.404 317.464,395.177 315.229,394.523C316.547,393.772 317.997,391.594 314.433,392.141C315.098,391.402 318.515,389.49 319.184,391.353C320.51,386.918 324.742,389.685 325.52,386.602C327.743,386.56 330.413,387.319 328.689,388.979C329.332,388.829 329.479,388.183 330.274,388.187C329.918,387.485 329.58,386.771 328.689,386.602C330.533,384.3 331.743,389.303 333.44,389.768C333.162,390.88 332.051,389.836 331.855,388.979M310.471,391.353C311.619,388.769 312.243,389.359 315.229,389.768C315.387,391.083 309.306,390.632 313.64,391.353C313.122,393.726 311.95,390.599 310.471,391.353M328.689,378.682C329.971,379.463 330.511,380.792 329.479,381.851C327.649,381.63 327.664,379.733 328.689,378.682M330.954,382.914C329.605,383.616 328.889,385.49 327.896,385.809C326.789,386.163 324.817,384.24 323.143,385.809C325.599,383.117 327.458,383.928 330.954,382.914M325.52,381.062C324.938,381.795 324.081,382.257 323.143,382.64C321.155,382.302 324.464,380.934 325.52,381.062M318.174,84.439C318.14,84.315 318.117,84.218 318.087,84.105C318.241,83.88 318.35,83.609 318.395,83.275C318.222,83.286 318.072,83.32 317.91,83.343C317.674,82.189 317.584,81.615 315.8,80.474C316.254,80.346 316.878,80.387 317.189,80.12C318.245,80.071 318.567,79.226 316.81,79.316C315.255,79.08 313.937,79.076 312.731,79.188C312.693,79.095 312.638,79.015 312.63,78.889C313.227,78.952 313.302,78.745 313.197,78.464C314.504,78.317 316.93,79.298 316.81,77.727L314.433,77.727C313.971,77.863 313.321,77.81 313.017,78.103C312.811,77.769 312.551,77.428 312.63,77.307C312.701,77.19 312.889,77.097 313.11,77.011C313.881,77.31 315.766,76.789 316.807,76.939C318.553,77.19 321.031,77.39 322.357,77.727C322.398,77.739 322.388,78.01 322.368,78.309C321.52,78.208 320.881,78.449 320.551,79.684C322.361,79.463 323.529,79.876 323.721,81.269C322.102,80.818 317.779,81.506 320.551,82.854C320.002,81.603 324.021,81.581 323.721,82.765C323.698,82.802 323.668,82.832 323.642,82.869C321.456,83.027 320.386,84.307 318.174,84.439M322.354,384.224C323.149,386.609 320.588,385.63 319.184,385.809C319.379,384.416 320.547,384 322.354,384.224M313.64,386.602L312.059,386.602L312.059,385.013L313.64,385.013L313.64,386.602ZM310.471,383.432C311.743,381.07 313.723,383.56 315.229,383.432C316.945,383.286 318.729,380.1 320.769,382.64C319.454,382.519 313.865,385.806 310.471,383.432M336.716,380.322C335.927,380.871 335.138,381.419 334.229,381.851C334.372,379.868 333.016,379.372 331.855,378.682C332.021,378.324 332.171,378.114 332.321,377.982C332.6,378.14 332.81,378.328 333.117,378.471C333.959,378.854 334.812,379.808 335.495,380.052C335.919,380.202 336.31,380.224 336.716,380.322M347.697,376.3C349.102,376.886 347.811,377.742 347.697,378.682C346.285,378.102 347.581,377.247 347.697,376.3M347.697,374.723C347.622,375.178 347.42,375.282 347.239,375.223C347.341,375.034 347.469,374.865 347.563,374.67C347.615,374.682 347.634,374.723 347.697,374.723M345.117,86.802C345.764,86.11 346.977,85.99 347.893,85.573C347.728,86.295 347.577,87.027 346.901,87.237C346.259,87.099 345.685,86.952 345.117,86.802M346.112,382.64C345.831,383.883 344.719,381.949 344.531,383.432C342.56,383.316 344.295,380.755 344.531,380.266C345.669,380.446 344.806,382.629 346.112,382.64M345.275,377.892C345.575,377.589 345.872,377.273 346.143,376.932C346.143,377.265 346.143,377.596 346.112,377.892L345.275,377.892ZM351.783,87.301C351.878,88.439 350.897,88.867 350.36,86.794C350.785,87.015 351.341,87.102 351.783,87.301M350.071,84.86C350.273,84.995 350.443,85.134 350.604,85.273C350.446,85.254 350.289,85.239 350.116,85.243C350.102,85.111 350.082,85.003 350.071,84.86M350.867,371.557C350.668,372.413 349.522,372.323 348.46,372.323C348.659,371.62 348.787,370.899 348.881,370.175C349.587,370.592 349.906,371.395 350.867,371.557M311.281,72.165C311.649,72.034 311.92,71.812 312.025,71.474C312.329,71.316 312.604,71.129 312.63,70.971C312.656,70.824 312.514,70.46 312.348,70.02C315.289,69.953 318.125,69.78 319.973,70.603C319.342,70.317 318.365,71.388 318.395,71.395C318.658,71.444 318.925,71.444 319.191,71.474C319.112,71.568 318.996,71.628 318.966,71.767C320.231,72.105 320.979,71.929 321.572,71.599C323.3,71.56 324.803,71.361 325.52,71.395C325.625,71.399 327.634,72.92 327.896,72.98C330.305,73.51 333.186,72.988 334.229,72.98C335.473,72.966 336.655,74.637 338.191,73.769C336.234,76.06 340.588,75.174 342.154,73.769C340.021,72.838 336.216,73.314 333.44,72.188C333.26,72.113 333.133,71.478 332.952,71.035C334.15,70.964 335.318,70.922 335.6,71.767C335.841,68.89 331.375,70.701 330.057,69.386C329.963,69.855 330.022,70.175 330.15,70.423C329.557,70.427 328.956,70.441 328.355,70.479C328.276,69.972 328.224,69.442 328.018,69.063C331.566,69.131 334.962,69.056 337.399,69.81C338.549,70.164 340.37,72.109 340.569,72.188C341.448,72.526 342.905,71.752 343.739,72.188C345.978,73.349 345.343,75.11 346.112,75.354C346.999,75.271 347.345,76.507 347.697,75.354C347.254,75.354 346.796,74.716 347.697,74.557C349.752,75.497 350.395,75.752 351.408,76.687C351.528,78.039 351.705,79.271 351.915,80.402C351.754,80.743 351.565,81.066 351.378,81.382C351.431,80.627 350.77,80.015 349.282,80.105C348.959,82.013 350.725,81.829 350.071,84.067C349.628,83.939 349.305,83.939 349.034,83.985C349.042,83.868 349.072,83.774 349.064,83.643C347.296,83.294 347.762,84.401 345.895,85.227C346.154,85.111 345.617,84.326 345.103,84.435C344.678,84.529 344.441,86.137 343.524,86.02C342.165,85.844 340.899,81.727 337.185,82.85C337.227,81.841 338.199,81.754 337.974,80.474C336.885,80.443 336.238,80.849 335.6,81.265L335.6,82.85C336.678,83.136 339.896,83.88 340.896,85.536C339.57,85.107 338.199,84.698 336.603,84.33C335.829,83.748 335.074,83.147 334.016,82.854C333.981,83.2 333.921,83.519 333.823,83.797C333.268,83.707 332.697,83.62 332.073,83.546C331.758,82.963 331.483,82.449 332.431,82.058C332.431,82.498 333.072,82.956 333.223,82.058C331.21,80.639 329.361,82.936 327.679,80.474C327.086,82.914 329.854,81.998 329.264,84.439C328.423,84.537 327.649,85.573 327.074,84.769C328.34,84.559 329.542,83.184 327.896,82.478C327.296,84.552 326.177,82.133 324.547,82.306C324.532,82.224 324.51,82.152 324.51,82.058C327.916,81.735 324.408,81.544 324.51,80.474C324.63,79.279 327.642,80.207 327.739,79.267C328.618,79.223 329.482,79.204 330.271,79.312C330.631,77.304 326.132,76.158 325.523,77.727C326.657,78.667 325.737,77.851 324.728,77.727C324.059,77.648 323.729,78.452 323.263,78.498C323.232,78.486 323.194,78.478 323.165,78.472C323.225,78.317 323.938,77.277 323.143,76.939C323.556,77.112 320.919,77.577 319.188,76.939C318.643,76.744 317.764,75.373 317.599,75.354C316.795,75.264 316.036,75.587 315.319,75.891C315.225,75.835 315.165,75.786 315.007,75.723C312.769,75.068 312.96,76.842 311.045,76.515C311.004,75.501 310.031,75.418 310.26,74.138C313.625,73.863 311.942,72.928 311.281,72.165M304.225,66.61C306.151,65.499 310.561,66.866 311.755,65.018C312.994,65.619 314.369,66.085 314.831,67.463C313.816,67.531 312.878,67.568 312.025,67.625C312.13,67.365 312.303,67.143 312.63,67.013C308.532,65.979 306.718,67.261 304.225,66.61M304.983,389.772C304.833,389.37 304.664,388.973 304.476,388.57C304.844,388.476 305.246,388.356 305.723,388.187C305.505,390.44 305.438,390.133 304.983,389.772M318.966,67.013L318.966,67.016C318.954,67.027 318.943,67.039 318.932,67.05C318.943,67.039 318.954,67.023 318.966,67.013M322.144,70.024C322.102,70.006 322.064,69.979 322.023,69.961C321.888,69.676 321.741,69.604 321.674,69.773C321.407,69.623 321.147,69.469 320.911,69.265C321.647,68.804 322.271,68.264 322.144,70.024M325.302,70.182C325.265,70.325 325.298,70.453 325.313,70.588C324.622,70.58 323.969,70.509 323.341,70.385C323.826,70.148 324.419,70.02 325.302,70.182M326.718,69.033C326.267,69.784 324.994,69.507 324.246,68.89C325.069,68.958 325.896,69.007 326.718,69.033M301.847,382.741C301.742,382.391 301.659,382.031 301.588,381.671C302.117,381.821 302.699,381.933 303.346,381.851C303.305,382.606 302.662,382.76 301.847,382.741M299.067,382.568C299.038,382.238 299.026,381.919 299.053,381.626C299.474,381.089 300.048,381.186 300.766,381.416C300.859,381.829 300.949,382.246 301.043,382.688C300.353,382.617 299.643,382.523 299.067,382.568M294.31,389.557C294.29,389.606 294.271,389.652 294.257,389.701C293.531,388.938 292.878,388.145 292.277,387.872C292.848,386.599 293.779,385.577 294.31,384.015C294.396,383.756 294.456,383.474 294.538,383.211C294.688,383.628 294.892,384.015 295.425,384.224C295.732,384.345 295.973,384.383 296.225,384.435C295.582,386.17 294.861,387.917 294.31,389.557M292.563,394.275C292.337,394.192 292.104,394.099 291.872,394.005C291.706,393.404 291.026,392.112 291.146,391.142C291.15,391.079 291.726,389.565 291.913,388.841C292.829,388.965 293.476,389.622 294.035,390.302C293.573,391.635 293.066,392.953 292.563,394.275M288.766,404.603C287.098,409.723 285.945,415.222 284.019,420.441C283.095,422.947 281.626,425.072 280.845,427.57C280.086,430.018 280.071,432.99 279.264,435.491C278.783,436.986 277.469,438.574 276.894,440.242C276.195,442.236 275.827,443.84 275.305,445.789C273.919,442.71 276.826,439.562 277.687,436.283C278.621,432.667 278.328,428.765 279.264,425.196C279.376,424.772 280.758,423.908 280.845,423.611C281.311,422.087 281.934,419.769 282.43,418.064C284.202,412.017 284.387,407.763 288.766,404.603C288.717,402.306 288.68,398.35 289.562,395.894C289.468,396.153 289.858,395.203 290.137,394.426C290.896,394.542 291.59,394.989 292.202,395.248C291,398.369 289.787,401.482 288.766,404.603M290.512,393.603C290.471,393.596 290.43,393.606 290.385,393.603C290.399,393.531 290.392,393.494 290.354,393.516C290.361,393.509 290.452,393.565 290.512,393.603M287.977,393.516C289.483,388.758 290.809,385.122 291.932,381.299C292.153,381.419 292.371,381.52 292.589,381.626C292.285,383.421 292.48,385.532 291.936,387.181C291.801,387.594 290.444,388.469 290.354,388.765C289.844,390.444 289.948,392.758 288.766,394.309C289.093,397.167 287.323,395.394 287.977,393.516M288.871,63.843C287.943,63.971 288.206,65.289 288.078,66.217C287.443,65.8 286.794,65.397 285.705,65.428C286.332,63.865 288.473,62.581 289.667,63.843C291.177,64.39 288.811,65.074 288.871,63.843M280.161,65.428C280.604,63.782 281.396,63.749 282.539,64.632C283.842,62.671 281.221,62.449 280.161,61.469C279.895,61.221 280.42,60.14 280.161,59.884C279.895,59.621 278.843,60.147 278.576,59.884C279.199,60.512 278.979,55.873 276.995,59.092C274.682,58.209 278.002,56.518 279.369,56.714C279.65,60.658 283.537,60.992 285.705,63.054C284.349,64.339 282.824,65.45 280.161,65.428M278.576,64.632C278.727,63.997 279.372,63.847 279.369,63.054C276.932,62.461 278.403,65.784 275.406,64.632C274.246,61.623 278.948,64.481 277.787,61.469C278.959,61.882 279.782,62.637 280.953,63.054C280.804,63.692 280.157,63.843 280.161,64.632L278.576,64.632ZM277.687,380.841C276.635,385.359 275.62,387.384 273.998,390.591C272.631,389.25 270.832,388.263 270.081,388.979C271.512,389.581 272.356,390.771 273.438,391.718C272.274,394.095 271.617,395.789 269.762,398.271C269.329,398.839 268.897,401.325 267.384,400.641C267.046,399.71 266.708,398.662 266.352,397.573C266.641,397.772 267.038,397.87 267.707,397.689C267.955,396.615 268.834,396.176 268.5,394.523C267.557,394.816 266.43,394.925 265.574,395.297C264.988,393.667 264.315,391.98 263.426,390.347C266.303,388.758 267.542,388.405 269.762,384.807C269.976,384.454 270.186,384.025 270.389,383.587C273.498,384.927 271.966,387.124 274.039,388.975C275.763,387.297 272.515,382.467 270.584,383.177C271.147,381.795 271.508,379.913 271.459,377.494C273.119,378.317 274.084,375.398 276.413,375.512C277.569,375.229 277.953,375.722 278.344,376.232C278.224,377.735 278.051,379.256 277.687,380.841M271.414,376.586C271.388,376.15 271.41,375.778 271.35,375.301C271.313,375.015 271.268,374.696 271.223,374.385C271.357,374.224 271.474,374.039 271.666,373.931C272.977,375.26 272.267,375.835 271.414,376.586M273.033,62.262C272.586,60.612 270.771,59.7 272.24,58.299C274.212,58.179 274.692,59.546 276.199,59.884C276.297,61.296 274.25,60.14 274.614,59.884C273.431,60.718 274.696,61.931 273.825,63.054C272.95,64.181 270.028,62.099 270.659,64.632C268.132,63.391 271.65,59.88 273.033,62.262M292.041,58.299C294.989,58.904 292.473,62.055 289.667,61.469C289.986,59.944 292.735,60.842 292.041,58.299M292.833,64.632L294.414,64.632C293.531,65.611 293.724,66.262 295.207,66.217C296.341,63.88 295.819,68.057 293.626,67.013C293.604,66.242 292.656,66.396 292.041,66.217C292.191,65.578 292.837,65.428 292.833,64.632M261.153,68.598C259.02,70.599 258.059,64.815 261.153,68.598M250.066,72.556C247.723,71.865 252.462,71.925 250.858,69.386C253.597,69.972 252.023,72.406 250.066,72.556M249.273,75.723C249.619,74.749 250.288,74.099 251.651,74.138C251.306,75.113 250.637,75.767 249.273,75.723M245.315,75.723C242.807,76.541 238.394,75.959 237.395,75.723C237.991,72.36 243.438,73.848 244.522,70.971C245.867,71.489 245.019,72.789 243.73,72.556C244.459,74.712 246.205,71.448 248.481,72.556C249.484,74.869 246.551,75.32 245.315,75.723M238.885,376.018C238.893,375.88 238.893,375.74 238.9,375.601C238.998,375.567 239.122,375.493 239.201,375.512C239.058,375.703 238.968,375.86 238.885,376.018M224.621,378.471C224.786,379.012 224.989,379.467 225.207,379.876C224.501,379.774 223.854,379.654 223.359,379.47C223.107,379.38 223.848,378.546 223.873,378.122C224.129,378.234 224.357,378.37 224.621,378.471M206.725,353.341C206.59,353.112 206.446,352.89 206.304,352.669C205.947,351.538 205.632,350.366 205.365,349.146C206.45,349.916 207.059,351.159 206.725,353.341M201.178,358.881C198.789,356.594 201.237,354.182 198.804,352.545C198.932,351.621 200.254,351.876 201.178,351.756C200.621,355.474 204.385,354.885 205.14,357.3C205.023,359.031 203.146,358.997 201.178,358.881M204.922,80.474C204.576,81.45 203.904,82.103 202.545,82.058C202.18,80.368 203.679,80.548 204.922,80.474M195.957,86.468C194.928,88.157 192.697,88.928 195.42,86.016C195.701,85.713 195.896,85.544 196.039,85.442C196.01,85.784 196.017,86.163 195.957,86.468M192.25,95.526C191.39,95.327 191.713,93.949 190.669,93.941C190.691,93.168 191.638,93.325 192.25,93.145C191.833,92.507 191.428,91.86 191.461,90.771C195.078,90.741 191.502,93.551 192.25,95.526M191.461,96.315C194.244,98.847 189.827,100.552 191.461,96.315M184.329,123.244C184.667,121.73 186.59,121.809 185.914,119.285C187.735,119.901 186.684,124.19 184.329,123.244M181.377,316.118C184.81,316.444 180.551,320.715 181.377,316.118M180.374,119.285C179.735,118.864 179.086,118.451 177.997,118.489C178.898,116.75 180.648,115.86 181.167,113.738C184.404,114.575 180.386,116.062 180.374,116.115C180.055,117.389 182.113,118.38 180.374,119.285M178.211,313.74L176.63,313.74C176.404,312.46 177.381,312.373 177.418,311.367C179.063,311.806 179.101,312.599 178.211,313.74M155.815,183.43C154.644,182.499 152.277,182.75 152.652,180.264C153.836,181.518 155.894,180.849 156.611,179.475C159.405,180.839 154.328,180.767 155.815,183.43M149.482,209.566C146.351,207.633 152.894,208.846 151.067,205.608C152.21,205.788 151.346,207.971 152.652,207.981C153.216,210.13 148.92,207.418 149.482,209.566M266.696,56.714C263.918,56.857 264.094,54.04 261.941,53.544C262.088,52.211 265.709,53.916 265.111,55.926C266.637,55.588 267.966,56.467 266.696,56.714M286.497,43.254C286.365,47.625 287.219,43.828 288.078,44.042C288.634,44.184 288.495,46.003 288.871,46.42C288.995,46.558 289.449,46.72 289.952,46.934C289.791,47.159 289.641,47.389 289.498,47.621C287.812,46.318 284.465,46.686 284.123,44.042C285.134,44.001 285.217,43.028 286.497,43.254M283.331,40.084C285.197,37.537 286.527,42.87 283.331,40.084M282.539,39.287C281.494,39.014 281.292,37.897 280.161,37.71C280.484,35.734 283.229,37.665 282.539,39.287M292.607,43.449C292.383,43.791 292.119,44.14 291.842,44.493C291.417,43.696 291.087,42.892 290.459,42.457C291.511,41.905 292.143,42.814 292.607,43.449M445.903,164.054C446.715,167.551 447.492,171.081 447.95,174.931L447.161,174.931C446.282,176.069 446.309,176.861 447.958,177.305C447.946,176.955 448.036,176.707 448.104,176.436C448.254,178.086 448.307,179.832 448.284,181.653C447.962,182.277 447.684,182.919 447.447,183.576C446.481,182.874 447.669,181.008 447.484,179.895C447.181,178.052 446.076,176.925 445.903,175.144C445.468,170.743 446.091,166.082 444.318,162.473C445.183,162.668 444.855,164.047 445.903,164.054M455.615,191.14C455.541,191.092 455.495,191.028 455.405,190.986C455.405,191.34 455.271,191.802 455.104,192.312C455.098,192.327 455.094,192.343 455.086,192.357C454.174,193.92 452.134,195.096 450.695,196.47C450.575,196.207 450.351,195.956 449.862,195.734C450.658,195.726 450.854,194.345 449.862,194.153C449.313,196.545 446.955,201.232 448.277,202.862C448.134,201.931 448.371,201.104 448.746,200.361C448.457,201.983 448.442,203.682 448.029,205.432C447.669,203.602 446.624,201.95 445.107,201.277C444.532,203.44 446.685,202.874 446.692,204.447C444.153,204.996 446.054,206.099 445.903,206.821C445.82,207.226 444.146,207.505 444.318,208.406C444.431,208.988 445.063,209.773 445.82,210.31C445.738,210.697 445.655,211.092 445.576,211.362C445.565,211.403 445.558,211.444 445.543,211.485C443.871,211.043 444.874,209.754 443.522,207.613C444.709,205.304 445.753,202.933 442.733,202.074C441.975,203.546 445.107,204.722 442.733,205.236C440.314,202.427 444.648,201.574 442.733,198.904C443.875,199.79 444.664,199.757 445.107,198.107C444.146,198.021 443.229,197.871 443.522,196.526C442.846,194.825 444.965,194.679 445.107,193.36C445.381,190.81 442.162,187.761 445.107,186.232L445.107,191.775C446.542,191.692 446.865,190.498 446.988,189.105C447.053,189.394 447.067,189.687 447.161,189.976C447.616,189.897 448.029,189.691 448.457,189.522C448.382,189.789 448.318,190.029 448.277,190.19C447.781,192.129 447.308,195.839 449.065,194.941C448.648,191.79 450.271,190.679 450.598,188.275C451.92,187.193 453.002,185.755 453.678,184.14C453.948,186.003 453.7,188.377 454.609,187.024C454.286,184.707 455.488,183.265 455.401,181.477C455.36,180.674 454.887,180.395 454.44,179.99C454.384,178.686 453.971,177.488 453.216,176.459C452.874,174.694 452.431,172.932 450.65,171.974C450.538,174.048 451.037,175.502 451.515,176.981C450.699,177.905 449.869,178.972 449.137,180.133C449.055,177.15 449.517,174.161 449.065,171.186C448.4,166.721 445.775,162.368 443.522,157.718C440.953,152.423 439.173,148.806 435.605,145.843C436.814,146.781 437.036,146.15 437.982,145.843C436.499,146.331 439.045,143.983 440.359,145.843C437.701,145.707 439.331,148.907 442.733,149.009C442.97,147.45 441.663,147.442 441.148,146.639C444.597,146.834 445.348,149.583 446.692,150.59C447.102,150.897 447.173,151.762 448.277,151.386C448.007,149.591 446.343,148.103 444.968,146.724C446.598,146.207 448.07,143.713 449.543,142.462C450.827,141.369 453.46,141.688 452.705,139.292C448.697,140.268 445.145,141.711 443.643,145.208C443.604,145.151 443.56,145.099 443.522,145.046C442.647,143.652 443.582,144.201 441.938,143.461C441.434,143.236 440.78,141.531 440.359,141.092C440.09,140.809 439.834,139.751 439.567,139.507C438.816,138.826 437.187,139.341 436.397,138.714C435.433,137.944 435.744,136.193 434.813,135.544C432.074,133.633 427.128,134.297 426.896,130.001C428.424,131.469 427.515,131.45 430.062,130.797C430.227,127.987 426.344,129.226 426.896,126.042C428.371,125.283 429.543,128.408 430.062,126.042C428.416,125.389 426.922,124.738 426.103,122.872C425.231,120.908 426.438,120.28 426.103,119.71C425.592,118.842 423.481,118.298 422.933,117.328C423.117,117.651 423.519,115.901 422.933,114.955C422.7,114.579 421.716,113.813 421.352,113.37C420.814,112.709 420.863,110.756 419.771,112.577C420.319,113.723 420.859,116.934 418.975,116.54C419.951,117.937 420.518,119.747 422.141,120.498C419.447,121.34 424.345,120.746 422.933,122.872C421.844,122.91 421.194,122.5 420.56,122.08C421.029,123.721 419.579,127.281 421.352,127.627C421.656,126.41 422.302,127.511 421.352,128.416C422.745,128.874 426.002,127.462 426.103,129.204C425.172,130.811 422.197,128.551 420.56,129.204C419.996,129.433 420.856,130.856 419.771,130.797C419.561,130.782 418.028,129.377 416.601,129.204C412.541,128.731 411.282,128.014 408.676,126.834C411.219,122.88 405.987,123.635 404.718,121.291C406.686,120.258 408.008,123.616 408.676,121.291C407.271,120.589 406.663,119.079 403.929,119.71C405.499,118.38 401.461,113.081 399.174,115.744C402.727,116.273 399.813,115.766 400.759,118.125C400.767,118.14 402.193,118.695 402.336,118.913C402.848,119.635 402.307,120.937 403.133,121.291L399.963,121.291C399.351,117.944 395.951,114.05 396.801,111.789C398.453,112.277 399.775,115.849 400.759,112.577C397.725,112.972 398.231,109.824 394.423,110.992C395.44,109.126 394.314,109.52 395.212,107.038C390.514,104.607 385.271,102.726 383.336,97.528C382.146,97.396 380.41,97.813 380.166,96.739C384.249,95.538 377.714,92.732 377.789,90.407C378.837,87.068 381.725,89.449 383.82,90.061C383.937,90.392 384.144,90.708 384.598,90.981C384.541,90.73 384.541,90.464 384.564,90.197C385.029,90.208 385.428,90.054 385.706,89.611C385.342,89.577 385.004,89.51 384.714,89.396C385.022,88.218 385.646,86.985 385.521,85.979C385.773,86.212 386.081,86.389 386.502,86.445C386.337,85.141 387.129,82.881 385.36,83.184C385.368,83.14 385.379,83.113 385.391,83.06C385.808,83.027 386.018,82.787 386.142,82.46C386.54,82.618 387.145,82.655 388.087,82.482C386.014,80.139 390.862,78.622 388.876,76.939C388.778,78.126 387.918,78.554 386.99,78.918C387.092,77.31 387.351,75.707 387.662,74.103C388.068,74.284 388.474,74.449 388.88,74.561C390.465,75.001 392.939,74.596 394.427,75.354C394.979,75.64 394.325,76.635 395.216,76.939C395.121,76.909 395.989,75.936 396.801,76.142C399.095,76.747 401.292,79.44 403.137,78.524C401.908,78.313 402.584,76.785 403.137,76.142C402.126,75.226 399.023,75.613 397.597,74.561C397.401,74.423 397.792,73.056 397.597,72.98C396.455,72.537 394.821,73.255 393.631,72.98C393.326,72.909 391.685,71.512 391.257,71.395C390.295,71.129 389.322,70.96 388.365,70.848C389.784,64.872 391.558,58.915 390.142,52.966C389.619,55.084 389.807,57.912 388.557,59.302C387.926,55.238 390.228,54.107 390.142,50.589C386.852,51.077 388.414,54.772 387.764,57.713C387.11,60.699 383.696,64.38 386.179,66.434C386.566,65.495 387.024,64.635 387.764,64.049C388.046,66.333 387.576,68.594 387.092,70.772C385.029,70.675 383.114,70.877 381.755,71.395C382.476,70.46 382.532,69.773 381.643,69.304C382.127,67.324 383.171,64.413 382.221,64.049C381.924,65.367 380.068,67.936 380.771,69.578C380.185,71.43 380.695,71.271 381.755,72.98C383.287,72.012 384.891,72.766 386.524,73.566C386.201,75.481 386.149,77.292 386.919,78.944C386.16,79.241 385.368,79.504 384.921,80.109C385.218,80.24 385.277,80.582 385.326,80.965C385.045,81.735 384.955,82.685 384.978,83.264C384.955,83.271 384.943,83.267 384.921,83.275C384.834,83.959 384.88,84.518 384.996,84.999C384.872,84.879 384.774,84.751 384.598,84.645C385.029,85.855 384.522,86.997 384.113,88.026C382.213,87.553 378.382,89.017 377.789,87.237C377.691,85.475 382.934,85.089 380.166,83.275C380.508,85.498 377.218,81.288 377,84.067C380.695,86.655 375.527,83.805 375.415,86.445C376.835,86.34 377.271,87.229 377,88.814C376.109,88.897 375.768,87.665 375.415,88.814C376.369,88.987 375.903,89.697 375.415,90.407C377.533,89.817 376.339,91.827 377,92.781C377.676,93.765 380.129,94.174 379.374,95.943C376.182,96.24 376.196,93.314 373.83,92.781C373.665,93.734 372.951,93.269 372.245,92.781C372.17,94.02 372.351,95.522 370.664,95.154C371.817,92.657 369.575,94.057 367.569,94.253C367.355,93.799 366.799,93.514 366.206,94.054C365.732,93.848 365.327,93.506 365.124,92.781C366.811,94.478 369.432,93.07 369.871,91.196C366.69,90.234 364.072,93.292 363.539,90.407C364.613,84.969 368.422,87.229 370.664,84.86C369.699,84.765 368.786,84.623 369.079,83.275C369.875,83.278 370.025,82.633 370.664,82.478C370.841,86.11 372.14,82.055 373.83,81.69C374.694,81.506 375.084,82.922 375.415,81.69C374.355,81.172 373.942,79.996 373.83,78.524C374.964,78.712 375.167,79.831 376.204,80.105C377.098,77.615 376.279,78.313 376.204,75.354C372.166,74.479 372.2,77.686 370.664,79.312C372.793,78.768 372.192,80.95 373.034,81.69C369.853,82.501 369.519,80.462 368.286,79.312C368.406,81.28 368.437,83.158 366.701,83.275C366.529,82.655 366.041,82.351 365.124,82.478C365.526,80.342 364.456,78.385 363.171,77.615C363.652,75.568 363.795,73.454 363.216,71.178C361.612,72.368 362.281,73.701 361.631,75.143C361.549,75.332 361.016,75.444 360.58,75.599C360.531,75.53 360.505,75.481 360.369,75.354C358.859,74.186 356.005,72.26 353.812,71.554C354.518,70.156 355.201,68.706 355.295,67.223C355.487,64.146 355.709,60.827 352.125,58.506C351.303,60.974 349.992,63.253 349.752,65.634C349.447,68.639 350.116,70.61 350.477,72.109C345.278,69.251 339.033,67.433 332.592,65.814C332.464,65.416 331.894,65.116 331.119,65.438C328.46,64.785 325.782,64.15 323.143,63.478C326.387,62.652 329.617,65.912 331.855,63.478C327.074,62.825 322.936,61.082 319.184,63.478C319.552,60.563 316.693,62.927 314.433,62.682C314.384,62.682 313.824,61.435 313.64,62.682C314.26,62.854 314.557,63.343 314.433,64.266C317.373,64.763 322.583,62.982 323.143,65.849C321.129,65.183 320.115,65.863 319.439,66.532C318.15,66.626 316.862,67.088 316.592,67.013C316.412,66.96 316.063,65.548 315.8,65.428C315.15,65.12 314.076,65.731 313.422,65.428C313.302,65.367 311.615,62.175 311.071,64.557C308.585,65.048 304.979,64.425 304.168,66.592C303.838,66.502 303.496,66.386 303.132,66.217C303.635,64.616 306.831,65.698 307.09,63.843C302.613,62.307 299.894,66.637 298.377,65.428C298.463,63.932 300.994,64.876 300.754,63.054C299.102,62.603 298.192,60.793 296.796,62.262C298.745,56.909 292.687,64.413 291.248,62.262C293.476,62.299 293.419,58.809 295.207,60.673C295.034,58.682 291.136,56.372 290.459,57.507C291.443,62.19 285.408,63.538 284.123,60.673C284.206,60.864 286.182,60.274 285.705,59.884C284.056,58.539 279.512,59.43 281.742,55.926C277.889,55.234 276.492,57.007 273.825,57.507C274.212,55.295 273.322,55.061 272.24,54.341C274.381,55.767 269.593,53.552 269.863,53.544C269.266,53.567 266.944,57.469 265.904,54.341C267.268,54.386 267.937,53.732 268.278,52.756C267.361,52.624 267.422,51.505 267.485,50.382C264.962,49.698 265.04,51.621 263.527,51.959C263.839,50.833 264.48,50.63 263.527,49.59L268.278,49.59C268.195,53.612 270.423,51.726 271.447,51.959C271.591,51.997 271.316,53.424 271.447,53.544C271.571,53.672 274.727,54.355 274.614,54.341C274.096,54.247 275.609,51.989 276.199,51.959C276.102,51.967 276.95,53.507 276.995,53.544C279.5,55.884 278.914,52.41 280.161,51.959C280.491,54.614 283.47,55.82 284.912,56.714C285.979,57.383 287.388,60.62 288.078,58.299C286.001,57.735 286.516,54.585 284.912,53.544C280.804,53.165 279.545,51.189 279.369,48.797C279.384,48.996 278.835,50.123 278.576,49.59C278.269,48.943 280.615,46.923 280.953,47.212C281.671,47.667 283.864,50.479 284.123,48.797C281.976,48.305 282.151,45.484 279.369,45.627C279.282,46.593 279.136,47.505 277.787,47.212C279.714,45.356 276.901,45.439 276.199,44.042C278.058,43.016 277.972,44.448 279.369,42.457C278.741,46.033 283.271,44.79 283.331,44.835C283.688,45.146 282.448,46.153 282.539,46.42C282.922,47.561 285.998,49.785 286.497,48.797C285.535,49.037 283.771,46.506 285.705,46.42C286.021,47.993 287.447,48.448 288.852,48.925C288.585,49.608 288.436,50.318 288.484,51.061C286.365,50.431 288.289,53.841 286.497,53.544C286.452,53.063 286.373,52.613 285.705,52.756C285.813,55.287 287.496,56.241 290.459,55.926C290.241,53.6 293.629,52.981 290.459,51.959C290.501,53.326 289.848,53.995 288.871,54.341C288.931,52.395 287.838,52.646 288.57,51.572C288.604,51.761 288.604,51.944 288.668,52.14C289.604,50.878 290.572,49.511 291.553,48.102C291.759,48.497 291.752,48.974 291.248,49.59C293.272,49.169 294.02,48.534 295.207,50.382C293.231,49.826 291.95,49.6 290.459,51.171C291.628,52.095 292.45,52.095 293.626,51.171C291.616,53.108 295.293,52.857 294.414,55.926C293.362,56.042 292.029,52.703 291.248,55.129C294.489,55.588 294.403,59.369 298.377,59.092C296.078,60.492 300.814,63.332 301.547,61.469C300.746,61.458 300.548,60.079 301.547,59.884C302.636,60.225 303.62,61.342 304.642,62.103C304.536,62.441 305.159,62.854 305.926,62.761C306.538,62.923 307.18,62.848 307.883,62.262C307.838,63.625 308.491,64.286 309.468,64.632C310.264,62.637 307.541,58.404 304.713,57.507C303.864,60.463 307.68,58.761 307.09,61.469C305.419,60.233 302.695,60.05 302.339,57.507C303.477,58.392 304.27,58.359 304.713,56.714C302.504,56.027 301.269,54.355 299.962,52.756C299.695,52.44 300.213,51.497 299.962,51.171C299.124,50.123 297.633,49.39 296.796,48.005C295.575,46.003 295.443,47.279 293.626,46.42C293.378,46.304 293.231,46.115 293.036,45.962C297.858,38.945 303.139,30.931 308.465,25.215C309.062,24.576 308.724,23.588 309.257,22.837C309.517,22.466 310.545,22.435 310.835,22.041C311.338,21.384 311.214,20.261 311.623,19.671C313.178,17.493 314.906,15.51 316.386,13.335C317.129,12.238 317.873,11.382 318.759,10.165C320.528,7.735 321.44,5.215 322.722,3.033C322.992,2.575 323.983,1.963 324.299,1.452C324.705,0.798 324.592,-0.279 325.096,-0.922C327.48,-3.968 331.776,-5.275 333.016,-8.847C333.711,-10.849 333.388,-13.568 333.016,-15.975C332.002,-16.017 331.92,-16.985 330.639,-16.768C328.494,-14.567 327.416,-13.992 325.888,-11.224C323.965,-7.724 321.625,-2.713 320.344,-0.129C319.781,0.997 320.107,1.943 319.552,3.033C318.144,5.808 315.574,8.28 314.008,10.958C313.546,11.75 313.599,12.678 313.216,13.335C311.89,15.626 310.786,17.504 309.257,19.671C308.355,20.94 306.988,21.563 306.087,22.837C305.186,24.11 304.66,26.187 303.714,27.588C303.315,28.17 302.568,28.414 302.129,29.173C301.13,30.897 300.626,32.057 299.751,33.136C297.671,35.678 295.928,38.333 294.245,40.929C293.49,40.932 292.683,40.985 292.833,40.084C296.886,40.399 293.964,38.841 293.626,37.71C293.746,38.108 295.016,35.152 293.626,36.918C293.183,38.562 292.386,38.597 291.248,37.71C291.136,40.035 291.932,41.443 293.502,42.078C293.321,42.355 293.138,42.634 292.957,42.912C291.24,41.759 290.29,38.769 288.871,41.669C286.467,40.271 291.038,39.216 288.871,38.499C288.548,39.498 287.85,40.117 286.497,40.084C285.618,39.547 282.385,37.455 284.123,36.918C285.769,37.38 286.682,38.581 288.078,39.287C288.773,38.138 288.713,36.223 291.248,36.918L291.248,34.54C287.777,33.962 291.891,36.114 289.667,36.125C288.312,35.366 287.928,33.635 287.29,32.163C284.364,34.825 284.318,28.497 282.539,30.578C283.335,30.589 283.53,31.972 282.539,32.163C282.539,31.724 281.896,31.265 281.742,32.163C284.007,32.955 286.005,32.587 287.29,35.333C287.226,35.189 286.039,35.592 286.497,36.125C286.951,36.658 289.107,35.678 288.871,36.918C288.078,36.914 287.932,37.559 287.29,37.71C286.737,37.289 284.979,36.906 284.912,36.125C284.882,35.787 285.769,34.593 285.705,34.54C285.656,34.495 283.091,33.669 283.331,33.751C279.207,32.407 283.098,34.232 280.953,35.333C280.06,34.273 278.208,34.232 276.995,32.955C276.608,32.55 277.923,31.712 277.787,31.37C277.709,31.175 276.368,31.539 276.199,31.37C275.929,31.107 276.454,30.074 276.199,29.785C275.786,29.312 274.546,29.14 274.614,28.208C274.719,26.871 279.883,27.765 276.199,25.827C276.116,26.458 273.585,28.23 273.825,26.623C274.914,25.605 276.169,22.852 273.825,22.661C273.687,27.048 269.908,19.243 268.278,22.661C270.445,24.354 271.52,24.125 272.24,25.827C272.169,25.654 270.423,26.946 270.659,27.412C270.858,27.803 272.552,27.262 272.24,28.208C270.682,27.968 270.67,29.274 269.863,29.785C269.329,27.419 264.571,29.274 264.323,26.623C267.459,25.394 269.164,29.616 270.659,27.412C265.776,23.803 260.229,24.812 255.609,20.287C257.927,20.077 258.043,22.075 260.364,21.872C261.341,19.307 257.799,21.264 258.779,18.702C256.801,20.226 255.523,17.493 254.024,19.491C255.065,19.506 255.035,21.691 254.024,21.872C252.763,20.493 250.461,20.155 247.692,20.287L247.692,22.661C249.758,22.969 252.034,23.066 253.236,24.242C249.987,24.587 248.158,23.51 246.107,22.661C246.915,25.811 252.313,24.377 254.817,25.827C254.997,25.215 254.84,24.268 255.609,24.242C257.18,25.876 257.18,24.993 255.609,26.623C259.261,27.986 264.598,27.667 265.904,31.37C264.057,29.372 264.218,32.888 265.111,33.751C265.555,32.609 266.348,31.817 267.485,31.37C267.253,32.929 268.556,32.944 269.07,33.751C267.575,33.928 267.324,32.857 265.904,32.955C265.559,36.072 269.131,34.33 269.863,34.54C270.269,34.653 271.009,37.012 271.447,35.333C271.009,35.336 270.55,34.694 271.447,34.54C273.878,35.317 271.095,37.207 270.659,37.71C272.271,39.303 272.21,37.357 273.825,36.918C276.995,39.551 282.163,40.192 284.912,43.254C284.409,43.411 283.47,43.873 282.539,44.042C281.479,44.237 282.163,42.9 281.742,42.457C281.506,42.206 278.035,40.94 277.787,40.88C277.724,40.865 277.746,42.713 276.995,42.457C276.837,42.408 277.111,41.045 276.995,40.88C276.312,39.911 270.055,39.415 272.24,40.084C273.254,41.443 276.011,41.067 276.199,43.254C275.406,43.25 275.26,43.891 274.614,44.042C274.535,42.014 271.669,42.772 270.659,41.669C269.668,43.771 271.988,42.788 273.033,44.835C273.172,45.108 272.067,44.797 273.033,45.627C272.694,45.342 273.953,44.992 274.614,45.627C277.404,48.298 277.217,48.298 278.576,51.171C277.784,51.163 277.634,51.816 276.995,51.959C276.916,51.073 278.145,50.731 276.995,50.382C275.553,52.808 268.732,51.313 268.278,48.005C266.869,47.531 264.995,50.329 264.323,48.005C268.327,49.57 265.935,43.944 265.111,46.42C265.593,46.469 266.051,46.54 265.904,47.212C263.929,47.775 262.651,43.726 261.153,46.42C262.088,46.807 262.952,47.265 263.527,48.005C262.6,49.578 259.737,47.039 259.572,46.42C259.625,46.626 260.901,46.017 260.364,45.627C257.818,43.787 255.219,43.185 252.443,42.457C252.398,41.624 251.426,41.842 251.651,43.254C254.558,43.629 255.937,44.477 258.779,46.42C256.421,46.607 252.447,44.373 251.651,45.627C254.231,47.272 257.961,47.767 260.364,49.59C254.604,50.345 255.245,48.613 249.273,49.59C249.202,51.749 250.596,51.182 249.273,52.756C252.087,53.987 249.751,50.066 251.651,50.382C253.991,50.941 257.239,50.596 257.991,52.756C255.824,55.344 249.462,53.732 248.481,57.507C248.132,58.201 250.656,63.159 252.443,59.092C251.253,58.96 249.518,59.377 249.273,58.299C251.591,56.47 254.329,58.968 255.609,58.299C254.61,57.973 253.991,57.277 254.024,55.926C255.114,55.955 255.764,55.55 256.402,55.129C257.833,57.769 261.713,54.423 262.734,58.299C259.715,58.709 256.801,59.23 255.609,61.469C259.778,61.315 263.94,55.767 266.696,59.092C261.664,59.865 257.33,61.342 254.024,63.843C257.788,63.535 259.527,61.784 262.734,62.262C264.936,62.588 267.087,65.074 269.07,63.054C268.653,63.926 268.278,64.925 267.485,65.428C265.483,66.697 265.559,64.459 264.323,64.632C263.951,64.687 264.439,66.193 263.527,66.217C262.576,66.246 261.112,65.638 259.572,65.428C253.938,64.669 249.615,66.254 247.692,63.843C246.246,66.464 242.889,63.64 241.356,67.013C244.538,66.217 246.449,65.893 247.692,68.598C247.723,67.501 247.317,66.854 246.9,66.217C248.537,66.689 252.098,65.24 252.443,67.013C249.27,67.989 246.221,70.858 242.146,68.598C242.355,70.866 241.319,69.228 240.561,69.386C240.178,69.469 239.794,70.85 238.979,70.971C238.097,71.099 237.74,69.784 237.395,70.971C238.457,73.375 235.358,73.139 234.229,74.138C234.465,73.931 235.407,74.509 235.017,74.933C234.656,75.328 233.057,75.41 232.644,75.723C232.106,76.132 232.046,77.326 231.062,77.307C230.803,75.471 231.186,74.268 231.851,73.349C227.614,72.804 229.492,78.378 225.515,78.099C225.406,76.62 224.992,75.452 223.93,74.933C222.446,76.439 223.844,76.92 223.93,78.889C222.841,78.858 222.19,79.264 221.556,79.684C221.244,78.317 222.728,77.652 221.556,77.307C220.775,78.378 219.441,78.889 218.387,79.684C218.3,78.716 218.149,77.81 216.802,78.099C216.843,79.786 217.511,79.703 216.802,80.474C218.123,79.038 213.98,80.954 213.635,81.269C215.235,77.04 211.341,81.709 210.469,79.684C209.421,77.697 214.153,77.762 211.258,76.515C210.544,77.912 209.485,78.967 208.092,79.684C208.092,78.889 207.453,78.742 207.299,78.099C207.254,76.649 211.355,75.418 208.884,74.138C208.336,75.703 206.766,76.252 204.922,76.515C204.475,73.645 210.214,68.852 212.839,69.386C212.399,69.386 211.945,70.032 212.839,70.182C214.77,65.81 209.271,69.015 208.884,69.386C207.626,70.596 204.896,72.128 204.129,73.349C203.927,73.675 204.399,74.659 204.129,74.933C203.679,75.395 202.236,75.32 201.756,75.723C200.051,77.161 200.257,79.621 198.586,79.684C198.894,78.513 202.244,74.28 200.171,75.723C200.156,76.74 199.273,77.221 198.477,77.626C198.477,77.589 198.484,77.555 198.484,77.517C198.56,74.498 197.106,71.261 198.484,68.807C196.411,68.598 196.55,71.192 196.107,72.766C195.566,74.697 196.25,77.566 194.525,78.309C194.969,80 195.453,80.954 195.784,82.114C195.363,82.069 194.77,81.915 194.631,82.058C194.387,82.303 194.891,83.44 194.631,83.643C193.951,84.154 192.569,83.598 192.25,84.439C193.29,86.787 192.952,88.338 190.669,89.186C190.248,88.049 193.756,87.256 191.461,86.809C191.292,87.766 190.578,87.298 189.876,86.809C188.964,87.748 188.979,89.607 189.084,91.564C187.589,91.388 187.334,92.454 185.914,92.356C185.44,90.944 188.238,89.066 185.914,88.394C185.741,89.01 185.898,89.96 185.125,89.979C184.952,89.359 184.464,89.055 183.54,89.186C183.796,92.499 180.761,95.331 182.744,97.9C181.385,97.854 180.716,98.509 180.374,99.481C183.232,98.733 181.479,102.602 181.959,104.236C185.715,105.073 184.494,101.99 185.125,101.066C184.938,101.351 186.191,102.365 186.71,101.858C187.45,101.13 185.599,98.245 187.499,97.9C189.031,100.739 187.198,100.8 186.71,103.443C189.286,103.65 188.389,100.371 190.669,100.273C190.083,101.671 189.813,105.081 189.084,105.817C189.481,105.411 188.362,104.754 188.295,105.028C188.01,106.163 189.084,106.733 189.084,107.402C189.08,108.6 187.656,109.49 187.499,110.572C187.213,112.517 189.182,116.521 185.125,117.7C184.885,116.141 186.191,116.127 186.71,115.319C186.064,113.96 184.486,113.557 183.54,112.153C182.947,111.274 183.611,109.295 181.959,108.987C182.826,108.686 184.968,105.817 182.744,105.028C182.515,105.726 180.604,108.499 180.374,106.605C181.265,106.44 181.603,105.73 181.959,105.028C178.268,105.72 183.045,102.974 180.374,102.651C177.711,105.419 180.998,100.176 177.997,100.273C178.215,102.587 177.809,102.997 176.412,101.858C176.547,103.046 176.126,104.78 177.204,105.028C177.381,104.412 177.227,103.462 177.997,103.443C177.963,104.532 178.372,105.182 178.789,105.817L176.412,105.817C176.081,107.417 177.599,107.331 177.997,108.19C178.756,109.854 177.392,111.439 178.789,112.945C178.488,110.534 181.666,111.6 181.959,109.783C181.955,110.572 182.594,110.723 182.744,111.36C183.57,113.944 181.05,111.62 180.374,112.153C179.754,112.638 180.506,116.255 177.204,115.319C179.416,114.147 175.267,111.917 174.827,113.738C176.712,116.648 177.434,121.13 177.997,123.244C178.079,121.306 180.61,123.079 180.374,124.032C179.198,123.116 178.38,123.116 177.204,124.032C176.738,121.595 173.828,121.602 173.242,119.285C173.813,121.433 169.509,118.715 170.072,120.862C170.909,120.911 170.695,121.881 169.283,121.659C170.034,125.399 171.604,128.31 174.038,130.368C172.611,127.255 173.242,126.988 171.657,124.032C173.317,122.365 174.635,125.077 175.615,126.41C173.393,129.178 177.613,131.559 177.997,135.916C177.613,136.854 177.155,137.711 176.412,138.29C173.43,138.898 172.626,137.328 170.072,137.501C170.703,138.909 170.526,140.134 169.979,141.332C170.545,140.708 172.667,140.96 172.453,142.248C172.25,143.45 171.773,142.315 171.657,142.248C171.387,142.083 170.26,142.488 170.072,142.248C169.779,141.865 169.794,141.568 169.963,141.361C169.035,143.356 167.09,145.264 166.117,147.792C164.964,150.781 165.753,153.418 163.74,154.132C163.57,153.237 162.861,152.891 162.158,152.547C160.111,153.418 161.065,157.14 160.57,158.883C160.532,159.014 159.022,158.747 158.992,158.883C158.786,159.652 160.457,161.756 159.781,162.837C159.387,163.475 158.331,162.529 158.196,163.634C158.188,163.663 159.045,164.369 158.992,165.219C158.805,168.096 158.399,172.564 157.4,174.721C157.321,174.9 155.26,175.235 155.026,175.509C154.636,175.99 155.402,177.394 155.026,177.89C154.306,178.845 152.649,178.649 151.864,179.475C150.865,180.512 151.451,181.773 150.275,182.638C155.413,181.098 156.337,187.978 153.445,189.766C153.828,187.723 150.647,185.274 149.482,187.392C150.94,189.368 153.806,189.932 154.237,192.935C152.578,194.182 152.845,197.349 151.067,198.483C149.708,197.466 151.053,193.747 148.694,193.732C149.457,196.601 145.134,194.393 145.532,196.894C146.264,197.743 148.446,197.142 147.898,199.272C145.817,197.214 147.274,200.553 144.735,200.064C143.41,198.491 144.803,199.057 144.735,196.894C141.543,196.347 142.79,200.233 139.98,200.064C139.905,198.817 140.086,197.315 138.399,197.687C137.72,199.531 141.168,201.1 139.192,201.649C138.021,201.232 137.194,200.477 136.019,200.064C136.495,202.634 141.645,203.302 143.15,202.438C142.813,202.634 142.159,201.649 143.15,201.649C145.089,202.701 141.724,204.038 143.939,204.811C144.758,202.25 145.036,206.9 145.532,207.193C146.674,207.861 147.714,205.743 147.898,207.193C148.739,210.144 144.931,208.443 145.532,211.151C148.652,210.138 147.439,213.458 149.482,213.529C151.233,212.387 148.487,211.595 150.275,211.151C151.331,213.09 153.224,210.28 153.445,211.944C149.183,212.913 154.328,214.577 151.067,215.898C150.268,215.29 148.123,212.105 147.105,214.321C148.318,215.2 150.94,215.452 151.067,217.483C151.071,217.525 149.779,217.597 150.275,218.28C150.756,218.933 152.837,217.585 153.445,219.865C153.791,221.164 153.051,222.385 152.652,223.031C154.797,223.943 157.234,227.369 155.815,229.367C157.802,229.265 158.298,227.857 158.992,230.155C157.441,229.78 153.934,231.29 155.815,231.74C156.987,231.219 159.173,229.915 160.57,230.952C160.735,231.072 160.4,232.484 160.57,232.537C160.976,232.649 161.313,232.582 161.606,232.47C161.603,232.627 161.569,232.807 161.58,232.957C161.584,232.973 162.384,233.115 162.846,233.4C162.764,234.126 162.666,234.858 162.591,235.579C162.478,235.76 162.392,235.935 162.373,236.127C162.335,236.529 162.422,236.965 162.538,237.408C162.591,237.941 162.703,238.437 162.947,238.869C162.955,238.861 162.955,238.854 162.962,238.847C163.086,239.286 163.191,239.71 163.169,240.082C163.022,242.471 161.854,244.739 162.373,247.215C162.455,247.616 162.85,248.221 163.285,248.855C161.979,249.712 161.501,252.059 162.846,253.336C165.084,253.986 164.896,252.217 166.805,252.544C166.504,251.225 165.738,250.369 164.874,249.61C165.171,247.207 166.185,245.742 166.335,244.837L167.916,244.837C168.119,247.188 164.784,248.743 167.916,249.588C168.089,248.975 168.581,248.668 169.501,248.8C168.314,246.485 169.354,245.972 171.011,245.231C171.273,245.235 171.473,245.295 171.688,245.344C170.62,248.157 172.671,246.013 173.46,247.215C170.793,249.453 171.597,250.794 171.086,254.339C172.27,254.474 174.008,254.061 174.248,255.136C174.323,257.295 172.934,256.727 174.248,258.302C173.456,258.302 173.31,257.659 172.671,257.509C172.077,259.95 174.842,259.034 174.248,261.472C172.622,261.685 173.505,264.42 171.875,264.638C167.521,265.299 166.467,262.654 162.373,263.053C163.507,265.599 157.562,264.979 159.999,266.223C163.041,265.013 161.569,265.448 160.791,267.807C164.326,268.754 166.522,271.049 168.705,273.347C168.697,275.45 169.006,277.873 167.916,278.894C169.279,279.202 169.944,277.715 170.297,278.894C169.171,281.294 171.029,282.136 168.705,282.852C163.567,284.445 169.186,282.301 169.501,284.437C169.757,286.142 168.563,287.998 168.705,290.773C168.776,292.032 169.952,293.308 170.297,294.736C171.063,297.951 171.822,303.333 171.086,305.819C170.984,306.165 168.547,305.86 169.501,307.4C173.31,308.576 170.229,302.852 173.46,303.442C172.701,300.332 173.151,298.342 173.46,296.321C173.749,294.428 173.167,290.917 175.045,290.773C174.519,292.051 176.284,292.911 176.63,293.94C177.275,295.87 176.667,298.071 176.63,297.898C176.99,299.453 178.252,300.543 178.211,301.068C178.132,302.128 174.496,302.39 177.418,303.442C179.063,301.624 177.279,304.959 177.418,305.819C177.501,306.338 178.417,306.153 178.211,307.4C178.154,307.738 176.712,307.355 176.63,308.197C176.517,309.286 177.782,312.749 175.045,311.367C174.767,308.513 173.835,307.543 175.045,305.03C171.684,305.361 174.984,312.358 170.297,311.367L170.297,315.321C166.981,315.325 166.981,316.226 165.543,319.284C168.502,320.129 167.8,317.315 170.297,317.703C171.139,319.144 172.272,320.812 173.242,322.311C173.204,322.281 173.174,322.269 173.141,322.236C173.509,325.518 169.438,324.343 167.597,325.406C167.631,324.316 167.222,323.667 166.805,323.028C159.721,322.194 154.527,319.472 147.004,319.069C146.666,320.583 144.743,320.501 145.423,323.028C150.174,322.871 152.976,325.631 159.68,325.406C160.473,326.461 160.427,328.35 162.054,328.572C162.087,327.482 161.678,326.837 161.261,326.202C166.677,326.641 170.598,325.504 174.879,325.252C174.917,325.36 175.019,325.522 175.045,325.616C175.27,325.398 175.473,325.311 175.676,325.236C175.924,325.229 176.175,325.225 176.427,325.225C177.847,325.777 178.883,329.214 180.588,329.578C181.047,327.01 180.047,325.893 179.8,324.039C182.293,324.97 185.11,325.586 186.924,327.201C184.956,327.325 186.695,329.887 186.924,330.371L184.817,330.371C185.328,329.706 185.508,328.985 184.228,328.572C184.344,329.631 181.568,331.52 183.436,331.745C183.607,331.547 184.145,331.13 184.584,330.648C184.678,332.365 186.47,332.384 187.326,333.338C185.328,333.818 183.217,333.132 181.23,332.711C182.034,332.684 182.864,332.684 182.97,331.956C181.824,332.377 181.031,328.868 180.588,331.163C181.069,331.212 181.527,331.283 181.385,331.956C180.945,331.997 180.555,332.087 180.588,332.591C179.649,332.426 178.74,332.347 177.896,332.538C175.495,333.075 174.027,335.377 173.141,336.493C169.572,340.984 166.132,346.025 167.597,352.335C174.541,351.096 178.316,346.689 181.058,341.244C184.085,341.661 183.894,339.993 185.02,338.874C185.678,338.213 186.237,337.641 186.785,337.086C186.973,337.612 187.025,338.273 186.924,339.084C188.903,339.482 190.181,340.579 191.679,341.458C193.595,347.373 194.657,350.968 194.845,357.3C197.497,357.458 197.805,362.34 199.6,358.881C199.345,360.718 199.72,361.923 200.389,362.844L203.555,362.844C203.333,361.041 203.746,359.865 205.14,359.674C205.925,360.146 206.578,359.823 207.097,359.474C207.303,359.967 207.502,360.484 207.712,360.958C207.547,361.228 207.427,361.532 207.517,362.055C207.807,362.103 208.039,362.212 208.313,362.276C208.741,363.208 209.174,364.177 209.571,365.007C209.095,369.217 203.442,371.801 206.401,376.883C212.291,376.007 206.92,368.74 210.364,365.799C214.656,369.874 217.706,375.192 223.382,377.892L223.359,377.892C223.269,380.694 220.737,376.206 220.978,378.682C222.367,379.095 222.976,380.619 224.147,381.062C224.737,381.276 225.244,380.957 225.68,380.661C226.941,382.366 228.813,382.857 230.953,384.015C231.802,384.469 232.192,385.366 232.988,385.716C231.415,385.555 229.635,385.344 227.313,385.014C226.841,387.124 230.255,386.2 232.861,386.602C235.629,387.026 240.489,387.988 241.57,386.602C238.577,386.223 236.526,386.065 234.107,385.832C234.349,385.791 234.611,385.716 234.912,385.599C235.828,384.116 236.158,383.143 236.113,382.501C238.675,382.501 242.325,383.583 242.363,381.062C241.883,379.958 239.313,380.942 239.193,379.47C239.81,379.297 240.756,379.455 240.778,378.682C238.416,378.688 238.089,380.739 236.031,381.062C234.551,380.619 232.65,380.439 230.731,380.311C230.473,379.811 230.097,379.158 230.16,379.264C229.8,378.7 229.815,378.129 229.368,377.679C223.997,378.099 223.513,376.724 220.662,374.505C219.968,373.972 219.063,373.483 218.285,372.924C216.287,371.489 215.813,369.874 214.326,368.169C212.918,366.569 211.183,364.74 210.029,362.753C216.636,365.104 219.551,371.151 228.106,371.557C227.228,374.978 229.721,373.472 231.272,373.931C233.567,374.606 235.851,377.066 236.819,377.097C236.857,377.097 236.984,376.991 237.146,376.849C237.563,376.969 238.07,377.01 238.738,376.893C239.035,377.675 240.812,377.667 242.592,377.768C243.22,378.737 243.869,379.681 244.538,380.6C243.617,381.103 242.893,381.592 243.944,381.851C244.323,381.66 244.624,381.393 244.966,381.16C245.556,381.949 246.172,382.711 246.81,383.436C246.374,383.954 245.908,384.439 245.533,385.017C246.427,384.983 247.092,384.713 247.704,384.393C248.594,385.321 249.544,386.178 250.555,386.944C250.565,387.496 250.626,387.876 251.076,388.187C250.926,388.086 251.099,387.838 251.347,387.575C252.264,388.198 253.24,388.739 254.276,389.193C253.387,389.663 252.553,390.216 251.865,390.564C253.007,391 253.803,391.797 254.246,392.938C255.764,392.393 256.921,391.492 257.89,390.399C258.693,393.753 257.619,395.481 256.14,396.837C255.29,396.792 255.023,397.321 254.84,397.941C253.371,399.079 251.899,400.194 251.546,402.226C250.288,409.494 257.829,411.364 259.31,418.823C259.302,417.719 260.504,417.82 261.048,417.275C261.322,417.005 260.826,416.01 261.048,415.69C262.944,412.964 265.153,411.541 268.177,410.939C267.85,418.222 264.744,422.132 264.222,427.57C262.201,427.668 261.142,428.724 261.048,430.74C262.152,431.75 261.536,434.477 262.633,435.491C260.368,433.035 257.566,437.741 259.467,439.453C261.75,439.931 261.544,436.944 261.841,436.283C261.953,436.036 263.23,435.769 263.426,435.491C263.67,435.149 263.249,434.297 263.426,433.906C263.527,433.674 264.815,433.373 265.014,433.117C267.001,430.515 266.193,429.733 265.803,427.57C264.977,423.025 266.847,422.124 268.177,419.649C269.115,417.906 269.573,416.396 270.558,414.898C273.056,411.082 277.532,407.991 278.479,404.603C279.223,401.922 279.226,398.888 279.109,395.755C279.268,395.642 279.418,395.541 279.587,395.311C279.384,395.136 279.252,395.075 279.083,394.963C278.93,391.293 278.674,387.518 279.264,384.015C279.447,382.944 280.586,382.426 280.845,381.637C281.344,380.176 281.329,378.313 281.341,376.533C281.81,376.277 282.265,376.071 282.753,376.3C283.331,376.578 281.311,377.577 282.753,377.892C283.121,377.968 286.114,375.512 286.715,378.682C285.269,379.864 281.648,378.422 283.545,379.47C285.337,380.529 286.535,379.203 288.3,379.47C288.552,379.512 288.867,379.636 289.213,379.801C289.073,380.417 288.949,381.036 288.766,381.637C288.68,381.933 287.305,382.802 287.181,383.222C286.208,386.554 286.682,389.93 285.6,392.724C285.175,393.844 283.628,394.188 284.019,395.894C281.235,395.751 281.412,398.564 279.264,399.06L279.264,406.977C280.202,408.156 282.257,408.209 283.226,409.354C281.412,414.372 280.747,419.556 279.264,423.611C279.008,424.303 278.918,425.267 278.479,425.985C278.092,426.601 277.059,426.958 276.894,427.57C276.942,427.386 277.746,428.472 277.687,429.155C277.469,431.386 275.857,434.169 275.305,436.283C274.407,439.701 274.186,443.333 272.932,446.582C272.398,447.96 271.241,448.389 270.558,449.744C269.931,450.983 269.229,452.501 268.969,453.703C268.987,453.636 269.896,453.838 269.762,454.495C269.229,457.146 267.835,460.79 267.384,462.416C259.688,464.347 259.707,475.193 265.803,475.881C269.66,476.316 272.8,472.204 272.932,467.96C273.021,464.895 268.725,462.893 270.558,459.25C281.911,460.929 277.667,451.866 278.479,445.789C278.719,443.923 280.263,442.95 280.845,441.035C281.539,438.8 280.957,436.234 281.637,433.906C282.223,431.919 284.101,430.398 284.811,428.362C285.321,426.901 285.194,425.147 285.6,423.611C287.86,415.082 290.268,408.205 292.728,400.641C293.761,397.468 294.809,394.651 295.815,391.897C296.164,391.958 296.544,391.86 297.01,391.353C296.687,391.361 296.386,391.278 296.086,391.15C296.566,389.825 297.04,388.511 297.482,387.181C297.746,386.377 298.162,385.685 298.553,384.987C298.564,385.002 298.579,385.002 298.591,385.017C298.433,384.773 298.26,387.124 297.798,387.394C300.229,387.744 301.141,388.416 302.227,388.668C302.396,389.539 302.572,390.395 302.752,391.248C302.681,391.282 302.666,391.338 302.557,391.353C301.201,391.559 299.616,390.151 299.387,391.353C300.75,392.314 301.956,392.849 303.169,393.152C303.62,395.124 304.093,396.931 304.611,398.271C305.171,399.728 304.833,402.452 306.981,402.226C307.688,400.186 305.775,398.481 305.4,396.686C305.186,395.657 305.348,394.568 305.445,393.479C307.623,393.555 310.091,393.144 313.64,392.938C313.828,394.072 314.943,394.275 315.229,395.311C318.661,394.632 321.606,395.47 324.333,395.894L322.034,395.894L322.034,398.271L323.619,398.271C323.66,397.261 324.618,397.167 324.412,395.909C325.328,396.048 326.222,396.139 327.104,396.104C330.278,395.98 333.44,392.995 336.61,395.311C335.994,395.492 335.04,395.335 335.025,396.104C337.981,395.736 339.675,394.102 339.776,392.938C341.182,395.034 342.984,391.774 343.739,394.523C343.915,393.024 342.841,392.773 342.946,391.353C344.441,391.181 344.692,392.247 346.112,392.141C347.13,389.152 348.141,391.064 349.282,388.187C350.169,388.356 350.511,389.062 350.867,389.768C349.192,390.775 344.228,392.581 345.324,393.734C347.934,391.579 355.964,390.666 354.822,387.394C354.104,387.846 351.911,390.658 351.656,388.979C352.377,388.041 355.517,385.547 353.237,384.224C352.828,384.533 352.073,388.071 351.656,385.809C352.678,383.759 353.294,383.323 355.614,384.224C354.42,380.383 359.472,380.393 357.199,377.892C360.44,377.705 360.756,374.588 361.158,371.557C363.799,371.402 363.712,370.539 364.328,369.176C364.463,368.879 365.763,368.766 365.909,368.387C366.139,367.797 365.56,366.516 365.909,366.013C366.506,365.16 367.708,365.697 368.286,364.429C368.219,364.571 367.032,364.161 367.494,363.632C369.331,364.323 369.315,359.605 368.286,362.055C367.964,363.046 367.265,363.67 365.909,363.632C365.02,361.469 364.944,360.815 364.328,358.881C364.444,359.253 363.697,359.823 363.539,358.881C363.569,359.061 363.836,356.27 364.328,356.504C364.963,356.616 365.553,356.774 366.135,356.939C365.751,357.578 365.169,358.017 365.594,359.463C366.979,360.169 367.438,358.678 367.348,357.326C369.136,357.957 370.735,358.772 372.245,359.674C372.553,358.313 371.073,357.645 372.245,357.3C375.832,356.714 371.036,359.471 374.619,358.881C377.158,353.875 371.224,347.46 373.034,343.043C370.428,341.443 369.368,338.296 369.083,334.363C369.083,334.351 369.087,334.345 369.087,334.337C371.193,336.504 370.803,333.394 373.034,333.541C374.014,339.295 374.296,333.89 376.204,335.914C370.945,339.035 377.601,342.472 375.415,347.79L380.959,347.79C380.962,345.334 378.187,347.279 377,344.628C379.024,343.764 380.778,347.035 381.751,344.628C379.985,343.224 376.549,343.49 376.204,340.665C377.368,338.833 378.717,342.213 378.585,339.084C377.181,338.904 374.619,339.881 375.415,337.499C376.429,337.545 376.512,338.517 377.789,338.288C377.604,334.277 374.209,332.432 377,329.578C374.927,329.8 373.59,329.289 373.83,327.201C379.67,327.089 375.208,332.448 380.166,332.748C381.026,330.619 379.663,331.456 378.585,329.578C378.697,329.769 379.836,329.256 379.374,328.786C378.72,328.121 374.495,325.443 377,323.242C378.487,323.431 376.549,324.55 377.789,324.827C377.552,323.002 380.08,323.948 380.166,322.446C378.363,322.672 377.188,322.259 377,320.869C377.796,320.869 377.938,320.223 378.585,320.076C380.109,320.399 379.208,323.144 381.751,322.446C383.328,322.848 384.88,320.583 386.442,319.333C384.129,320.275 381.326,320.546 380.959,321.657C380.917,320.651 379.944,320.564 380.166,319.284C386.378,318.735 385.736,314.814 389.672,313.74C389.657,313.744 388.978,315.4 388.876,315.321C389.499,315.795 393.998,313.39 394.423,314.533C395.655,311.712 391.737,314.052 392.046,312.155C395.606,308.588 398.693,304.55 399.963,298.694C398.49,297.936 397.318,301.06 396.801,298.694C400.042,298.466 398.896,297.178 398.055,295.709C398.276,295.371 398.476,295.007 398.678,294.653C399.527,294.571 400.286,294.394 400.759,293.94C402.903,291.886 406.655,292.047 405.514,289.215C405.521,289.204 405.528,289.192 405.532,289.185C410.637,288.749 411.185,283.769 414.22,281.267C412.244,280.224 411.741,284.4 411.058,282.064C413.859,281.433 414.114,278.256 415.805,276.516C416.894,278.319 413.766,279.495 415.805,279.682C416.022,278.241 418.659,275.247 416.601,274.14C416.601,274.583 415.955,275.041 415.805,274.14C418.328,272.52 414.313,268.949 416.601,267.807C419.688,269.25 415.609,272.968 419.771,273.347C419.643,269.077 417.683,267.604 416.601,265.43C417.54,267.304 419.042,265.171 418.186,263.845C417.776,263.214 416.729,264.156 416.601,263.053C416.594,262.97 418.216,261.873 418.186,260.675C418.145,259.432 415.587,258.939 416.601,256.721C418.426,255.142 417.479,256.916 418.975,257.509C418.051,254.512 418.869,251.384 418.186,248.8C417.465,246.102 414.82,244.544 415.009,241.675C417.75,242.365 419.215,238.437 421.352,236.92C422.077,236.401 422.558,236.266 422.865,236.259C422.678,236.098 422.441,235.842 422.141,235.335C427.219,233.81 429.115,229.111 434.02,227.41C433.802,225.607 434.215,224.439 435.605,224.24C435.38,225.63 439.331,227.298 437.189,225.833C437.183,224.256 435.026,224.826 435.605,222.663C435.838,222.482 437.04,222.895 437.189,222.663C439.785,218.475 440.896,212.526 445.494,211.684C444.424,215.654 443.612,220.274 442.809,224.293C442.778,224.278 442.771,224.256 442.733,224.244C442.774,225.697 438.677,226.93 441.148,228.206C441.238,227.718 441.828,227.068 442.369,226.426C442.125,227.56 441.877,228.639 441.622,229.577C439.537,237.179 439.124,249.246 436.078,254.918C435.484,257.362 438.809,255.883 437.659,258.88C435.804,264.772 426.385,269.265 432.904,276.303C447.012,276.051 437.085,258.155 443.207,251.748C443.623,248.859 439.725,248.194 441.622,246.208C441.82,230.193 451.274,220.755 454.294,208.192C454.809,206.044 455.664,202.986 455.879,201.067C456.089,199.144 455.837,197.101 455.743,195.061C456.172,193.773 456.731,192.237 455.946,191.381C456.179,190.573 457.073,189.476 457.46,188.395C459.094,183.847 460.168,179.712 459.837,176.512C459.146,178.773 458.147,181.293 457.46,183.64C456.742,186.097 456.611,188.725 455.615,191.14M468.551,155.923C466.887,159.056 463.54,160.914 465.377,165.425C464.104,167.348 460.825,171.386 462.215,173.346C464.123,172.512 463.792,169.635 464.588,168.595C466.488,166.12 470.237,165.188 471.717,162.259C471.514,159.288 470.474,157.162 468.551,155.923M379.843,74.351C379.494,75.906 376.91,79.249 379.059,80.683C378.626,78.348 381.304,75.095 379.843,74.351M342.623,48.215C342.8,48.827 342.643,49.773 343.416,49.796C343.412,50.239 344.055,50.697 344.212,49.796C342.612,47.474 343.495,47.557 341.831,45.834C342.649,46.69 338.808,45.976 340.246,44.249C337.64,44.286 337.219,46.51 337.08,49.008C338.777,50.716 341.5,49.413 342.623,48.215M235.704,555.867C235.719,559.563 239.647,559.563 239.666,555.867C238.626,554.857 236.748,554.857 235.704,555.867M230.953,533.697L230.953,530.527C229.578,530.467 228.493,530.707 227.787,531.319C227.547,533.408 228.884,533.915 230.953,533.697M228.575,521.817C231.059,522.182 232.117,521.134 231.745,518.647C229.563,516.183 226.115,519.632 228.575,521.817M204.82,521.025C208.265,514.065 197.091,519.658 204.82,521.025M250.754,492.515C250.866,492.801 249.886,491.64 249.961,491.723C249.391,491.125 249.713,490.885 249.169,490.141C246.761,486.784 240.076,489.8 238.874,493.304C238.532,494.307 239.313,497.063 239.666,499.64C240.485,505.593 242.423,509.682 246.002,509.934C247.906,510.069 249.334,508.594 252.339,506.768C253.353,503.947 251.084,501.469 250.754,498.85C250.435,496.293 251.542,494.592 250.754,492.515M242.04,485.387C243.963,486.634 245.428,488.339 249.169,487.76C256.049,479.557 239.407,471.081 242.04,485.387M146.216,446.582C147.008,446.578 147.154,447.221 147.797,447.371C147.793,446.578 148.438,446.428 148.585,445.789C147.793,445.789 147.646,445.147 147.004,444.997C147.008,445.789 146.361,445.939 146.216,446.582M265.803,447.371C266.427,444.637 265.063,443.889 263.426,443.412C263.605,444.907 262.531,445.158 262.633,446.582C263.703,446.826 264.15,447.705 265.803,447.371M253.924,434.698C254.077,434.826 252.579,432.982 253.131,433.117C248.395,431.998 247.002,435.859 246.795,443.412C247.813,445.564 250.633,445.906 251.546,448.163C249.198,450.3 244.974,450.566 243.625,453.703C243.997,457.301 247.145,458.108 251.546,457.665C250.317,453.97 250.697,452.381 251.546,450.533C253.119,447.119 256.744,445.557 257.09,442.62C257.518,438.976 255.302,435.792 253.924,434.698M223.828,433.117C223.183,435.949 225.511,437.05 226.998,435.491C227.234,433.403 225.897,432.892 223.828,433.117M224.621,429.947L222.243,429.947C222.101,431.676 222.894,432.468 224.621,432.321L224.621,429.947ZM122.452,415.69C122.576,416.626 122.317,417.94 123.245,418.068C123.729,417.324 125.089,415.146 122.452,415.69M299.856,410.147C299.815,411.161 298.843,411.244 299.064,412.52L300.646,412.52C301.543,411.387 301.502,410.594 299.856,410.147M136.706,410.147C135.26,412.025 134.64,414.729 135.913,417.275C142.839,419.615 143.492,408.528 136.706,410.147M309.362,409.354C309.129,411.428 309.651,412.765 311.736,412.52C311.983,411.45 312.862,411.011 312.528,409.354L309.362,409.354ZM315.698,406.977L317.283,406.977C317.324,405.963 318.294,405.881 318.076,404.603L315.698,404.603L315.698,406.977ZM143.042,409.354C144.454,410.057 145.059,411.567 147.797,410.939C151.646,405.185 142.249,401.742 143.042,409.354M165.224,405.396C164.593,408.138 166.103,408.739 166.805,410.147C170.481,409.602 172.585,407.488 173.141,403.811C169.354,402.91 168.765,404.495 165.224,405.396M329.163,398.271C329.283,399.195 329.027,400.517 329.951,400.641C330.439,399.909 331.796,397.724 329.163,398.271M191.355,400.641C194.387,402.155 194.24,401.61 196.899,400.641C198.608,400.029 200.269,400.874 200.065,399.06C197.166,397.682 194.327,399.834 191.355,400.641M194.525,396.686C191.54,397.584 190.92,395.924 189.771,398.271C191.184,397.791 193.062,400.589 193.729,398.271C193.249,398.223 192.795,398.151 192.938,397.479C193.553,397.295 194.503,397.453 194.525,396.686M364.009,396.686L365.594,396.686C365.59,395.894 366.232,395.744 366.383,395.101C365.368,395.057 365.286,394.088 364.009,394.309L364.009,396.686ZM167.597,395.894C167.837,393.802 165.944,393.85 164.431,393.516C163.717,396.074 167.015,394.628 167.597,395.894M375.096,391.142C373.958,392.296 373.932,394.208 376.681,393.516C376.722,392.153 376.068,391.488 375.096,391.142M186.602,393.516C188.565,396.097 192.348,391.349 189.771,389.557C190.154,392.314 187.788,392.322 186.602,393.516M124.037,388.765C123.854,389.254 125.235,390.463 125.626,390.35C127.707,389.712 125.111,385.896 124.037,388.765M129.577,384.015C129.337,385.085 128.45,385.524 128.785,387.181C132.469,388.139 132.593,384.033 129.577,384.015M364.798,383.222C363.885,384.157 363.903,386.016 364.009,387.974C364.448,390.114 366.168,382.888 364.798,383.222M204.82,383.222C203.689,383.03 203.487,381.919 202.443,381.637C201.752,383.264 204.497,385.19 204.82,383.222M385.391,351.542C378.156,350.685 378.78,361.532 383.806,362.625C382.205,358.791 387.621,356.215 385.391,351.542M416.281,311.148C415.654,314.198 420.071,314.198 419.444,311.148C417.28,311.224 417.852,309.831 416.281,311.148M423.41,289.767C425.213,289.989 426.381,289.576 426.572,288.186C424.56,287.773 423.504,286.834 423.41,289.767M428.157,286.601C428.112,287.086 428.037,287.536 427.365,287.393L427.365,288.974C429.314,290.203 429.693,286.286 428.157,286.601M85.229,276.303C84.14,277.32 83.854,281.039 86.021,281.057C86.859,278.429 88.369,277.621 85.229,276.303M531.906,264.424C531.269,269.22 535.535,264.949 531.906,264.424M111.365,262.046C110.352,262.009 110.272,261.036 108.988,261.254C107.756,263.203 111.685,263.586 111.365,262.046M432.904,254.918C431.891,254.88 431.812,253.907 430.531,254.125C429.303,256.078 433.22,256.457 432.904,254.918M485.97,231.162C485.925,231.642 485.857,232.098 485.178,231.955L485.178,233.54C487.131,234.771 487.51,230.847 485.97,231.162M546.156,231.162C549.108,233.123 554.096,231.5 553.288,227.204C549.115,226.719 547.29,228.597 546.156,231.162M550.915,213.739C552.984,213.961 554.321,213.446 554.081,211.362C552.012,211.14 550.678,211.651 550.915,213.739M569.923,203.437C569.671,204.512 568.796,204.954 569.13,206.61C571.339,207.88 571.319,203.189 569.923,203.437M565.168,193.942C562.302,197.676 569.807,194.99 565.168,193.942M496.265,172.554C500.782,171.52 503.145,168.343 503.393,163.048L501.02,163.048C500.05,166.833 495.645,167.182 496.265,172.554M460.63,128.205C459.428,129.32 458.128,132.051 459.837,133.749C463.116,134.496 464.693,127.871 460.63,128.205M429.746,119.492C431.354,117.374 430.489,116.483 431.327,114.741C428.69,114.426 426.906,119.008 429.746,119.492M425.78,113.948C427.98,110.166 423.181,112.029 425.78,113.948M489.14,98.106C481.05,97.573 477.94,109.592 482.808,114.741C488.434,112.987 491.152,104.961 489.14,98.106M503.393,96.521C500.82,103.264 501.316,111.087 500.227,118.699C499.059,126.868 497.196,136.021 495.476,143.247C494.315,148.122 493.41,153.076 492.306,158.301C491.626,161.53 490.694,164.535 489.929,167.807C488.712,173.03 488.118,178.938 486.763,182.059C485.17,185.728 482.891,188.778 482.015,192.357C480.659,193.83 478.398,193.845 477.26,194.731C475.021,196.47 472.073,201.804 471.717,204.229C470.85,210.13 472.799,217.837 477.26,218.49C483.037,219.328 490.751,206.532 490.721,201.856C490.706,199.106 487.72,196.188 487.555,193.15C487.518,192.467 488.084,190.251 488.348,189.187C489.429,184.786 489.109,179.84 489.929,175.724C490.124,174.769 491.156,173.526 491.514,172.554C491.99,171.268 491.994,169.966 492.306,168.595C493.575,162.999 494.131,157.628 495.476,152.753C496.163,150.27 497.455,147.998 497.85,145.625C498.255,143.217 497.643,140.941 497.85,138.5C498.397,132.186 501.271,124.622 501.812,118.699C502.063,115.935 501.421,113.317 501.812,110.778C502.578,105.854 505.492,101.877 504.978,97.314C504.801,96.702 504.316,96.397 503.393,96.521M487.555,93.359C488.914,92.075 489.522,90.047 489.14,87.023C485.591,87.102 485.516,91.669 487.555,93.359M492.306,88.608C492.708,88.368 495.142,88.187 495.476,87.815C496.133,87.068 495.111,84.867 496.269,84.645C493.083,85.423 489.805,86.099 489.929,90.189C491.555,90.666 491.622,89.014 492.306,88.608M486.763,73.558C486.59,72.939 486.098,72.635 485.178,72.766C483.135,74.498 481.091,77.453 482.804,80.687C486.928,81.108 486.83,77.318 486.763,73.558M501.02,68.807C499.772,70.726 498.071,72.188 498.642,75.932C503.197,76.582 503.242,70.682 501.02,68.807M349.752,56.925C349.962,55.843 349.264,53.837 348.959,55.344C348.745,56.421 349.447,58.431 349.752,56.925M391.727,45.041C390.817,45.98 390.832,47.847 390.934,49.796C391.373,51.94 393.098,44.715 391.727,45.041M427.365,46.63C427.895,45.049 430.099,43.246 427.365,42.675C427.842,44.08 425.044,45.958 427.365,46.63M386.972,45.834C387.261,44.471 389.367,40.943 387.764,40.298C386.896,41.087 384.801,44.613 386.972,45.834M371.137,42.675C371.693,42.086 373.109,38.792 370.345,39.502C370.479,40.688 370.063,42.424 371.137,42.675M333.117,39.502C338.484,39.618 337.575,30.503 335.495,27.622C334.853,32.147 331.908,35.336 333.117,39.502M395.685,25.245C393.127,24.535 394.569,27.828 393.308,28.418C395.396,28.655 395.351,26.758 395.685,25.245M280.953,51.171C282.975,50.314 283.729,54.581 284.912,51.963C283.729,51.978 281.679,49.022 280.953,51.171M256.402,27.412C254.903,27.592 254.655,26.517 253.236,26.619C251.967,28.827 256.654,28.808 256.402,27.412M256.402,29.785C259.125,29.485 261.341,33.766 263.527,31.37C260.808,31.675 258.592,27.396 256.402,29.785M245.315,32.955C245.315,33.015 249.003,32.857 247.692,34.54C246.63,34.458 243.324,33.057 245.315,34.54C246.96,35.956 250.734,34.694 252.447,33.748C248.854,34.548 250.734,31.4 247.692,31.37C247.82,31.374 245.318,32.801 245.315,32.955M262.734,34.54C260.128,33.191 257.927,31.434 254.817,30.582C254.716,32.756 259.005,33.128 260.364,33.748C261.225,34.141 262.307,37.311 262.734,34.54M257.194,36.921C255.358,37.169 254.152,36.786 253.236,36.125C252.012,38.514 257.33,38.206 257.194,36.921M249.273,28.204C249.086,29.335 247.971,29.537 247.692,30.582C249.188,30.42 255.516,31.115 253.236,29.789C250.712,30.465 250.228,29.101 249.273,28.204M231.062,18.702C229.252,18.476 228.08,18.89 227.893,20.287C229.695,20.505 230.867,20.092 231.062,18.702M216.009,17.906C216.265,20.009 211.573,17.166 212.843,20.287C214.029,20.057 218.566,19.265 216.009,17.906M240.564,18.702C238.371,18.8 237.845,20.212 238.979,17.909L237.395,17.909C236.913,17.951 236.459,18.03 236.602,18.702C237.086,18.743 237.541,18.818 237.395,19.494C236.778,19.671 235.832,19.514 235.81,20.287C237.909,20.275 240.47,20.723 240.564,18.702M216.802,41.669C216.692,41.789 215.242,41.541 215.217,41.669C215.734,41.533 215.701,42.923 216.802,41.669M242.938,21.872C240.271,21.594 237.161,20.069 235.81,22.661C238.697,21.154 240.748,23.738 242.938,21.872M234.229,23.453C232.981,23.532 231.482,23.344 231.851,25.038C233.214,25.079 233.879,24.426 234.229,23.453M238.979,29.785C234.961,27.63 236.027,32.55 238.979,29.785M275.406,48.797C270.816,46.514 273.322,50.75 275.406,48.797M262.734,17.909C262.693,18.39 262.618,18.849 261.941,18.702C262.438,16.155 259.099,17.613 261.153,15.532L257.991,15.532C257.807,17.027 258.877,17.278 258.779,18.702C259.576,18.706 259.719,18.059 260.364,17.909C259.279,21.432 265.559,18.383 262.734,17.909M276.199,14.743C280.124,13.688 277.438,10.999 276.199,14.743M207.299,74.933C207.179,73.878 210.518,72.541 208.092,71.767C208.212,72.815 204.869,74.156 207.299,74.933M341.937,83.643C343.596,83.894 348.79,83.764 345.895,82.058C345.496,83.842 342.011,80.946 344.306,79.684C341.65,80.499 343.078,77.221 342.729,75.723C339.772,74.885 341.475,78.696 338.767,78.099C338.77,77.664 338.128,77.198 337.974,78.099C338.932,78.268 338.462,78.978 337.974,79.684C342.56,79.361 343.221,81.404 341.937,83.643M327.487,75.324C328.303,76 329.054,76.413 330.057,74.937C329.013,74.922 329.332,73.544 328.472,73.345C328.854,75.339 324.84,71.436 324.51,74.14C325.377,73.841 326.057,74.193 326.665,74.655C323.611,74.596 319.904,73.878 318.395,75.354C321.365,76.454 325.265,76.334 327.487,75.324M334.808,73.349C329.733,72.435 333.064,75.767 334.808,73.349M337.185,78.099C332.111,77.183 335.446,80.518 337.185,78.099M261.153,22.661C262.205,22.544 264.102,25.323 264.323,23.453C263.268,23.569 261.931,20.234 261.153,22.661M268.278,36.125C264.5,33.924 266.362,38.724 268.278,36.125M202.548,39.295C204.993,39.182 203.13,35.944 201.756,38.499C201.485,39.002 202.112,39.309 202.548,39.295M268.278,42.461L269.863,42.461L269.863,40.876C268.897,40.963 267.988,41.112 268.278,42.461M275.406,20.283C277.221,20.76 278.283,14.804 275.406,15.532C276.267,18.897 274.93,19.52 275.406,20.283M317.385,59.884C317.595,59.967 319.387,61.608 320.551,60.677C320.945,60.365 313.617,58.374 317.385,59.884M196.899,61.686L196.899,63.043C196.182,62.911 195.011,64.729 194.627,63.054C195.882,63.092 196.527,62.528 196.899,61.686M220.764,29.785C220.08,31.355 213.14,33.751 212.843,30.582C215.813,31.952 217.932,29.553 220.764,29.785M214.428,25.83C216.294,25.846 216.76,24.467 219.179,25.038C219.472,26.383 218.563,26.533 217.594,26.619C218.015,27.258 218.42,27.907 218.387,28.997C216.147,28.343 216.336,30.108 214.428,29.785C215.911,28.279 214.514,27.799 214.428,25.83M193.839,67.009C195.626,66.903 196.543,65.438 196.899,64.323L196.899,67.223C196.944,68.053 197.917,67.843 197.692,66.431L197.692,53.759C198.102,49.135 197.14,45.244 197.692,41.09C197.876,39.7 198.436,38.333 198.838,36.974C200.802,37.578 201.26,33.887 200.171,36.125C199.829,36.08 199.442,36.076 199.074,36.057C199.172,35.622 199.258,35.189 199.277,34.754C199.333,33.425 199.277,32.084 199.176,30.728C200.505,30.094 202.379,29.999 203.341,28.997C203.003,32.925 205.707,29.439 206.503,31.37C203.502,31.445 206.566,33.435 206.503,33.751C206.488,33.879 205.046,33.624 204.926,33.751C204.265,34.428 205.421,36.88 204.926,37.706C209.763,38.251 211.754,35.775 216.009,37.706C213.083,37.515 215.532,40.41 215.217,40.876C214.367,42.141 211.919,40.534 212.051,43.254C213.951,44.451 214.025,41.976 215.217,41.669C215.494,40.08 219.231,38.772 216.809,37.71C216.802,37.718 216.802,37.728 216.794,37.736C216.633,38.356 216.768,39.272 216.009,39.291C216.151,38.672 216.44,38.176 216.794,37.736C216.798,37.728 216.798,37.718 216.802,37.706C216.805,37.706 216.805,37.71 216.809,37.71C219.562,34.383 227.813,35.937 231.062,36.121C230.446,36.298 229.496,36.147 229.474,36.918C231.963,37.822 231.396,35.675 232.644,35.333C233.477,39.738 237.263,36.605 241.356,36.918C243.257,37.06 247.542,38.176 249.273,38.499C248.864,38.424 253.807,39.824 250.066,38.499C249.251,36.861 245.394,36.444 242.938,36.121C243.546,36.2 244.571,35.336 244.522,35.333C243.328,35.201 242.896,36.013 242.146,36.121C239.816,36.485 236.598,35.892 235.017,36.121C235.449,36.061 235.926,36.816 235.017,36.918C234.025,36.591 233.398,35.895 233.436,34.54C238.123,34.529 237.521,35.099 241.356,35.333C241.59,32.452 237.131,34.277 235.81,32.955C235.017,32.955 234.87,33.601 234.229,33.751C234.476,32.678 235.354,32.238 235.017,30.582C226.585,31.535 220.092,35.618 213.635,34.54C217.391,30.221 224.32,33.549 227.893,29.785C229.916,28.929 231.667,32.196 232.644,29.785C230.078,25.744 225.439,33.015 221.556,29.785C225.24,30.484 221.02,27.179 223.138,27.412C224.324,28.666 226.379,27.998 227.1,26.619C224.703,25.883 220.94,27.754 220.764,26.619C221,23.265 224.095,27.134 224.726,25.038C224.106,24.861 223.16,25.015 223.138,24.245C223.753,24.069 224.703,24.223 224.726,23.453C222.037,23.675 220.174,24.715 216.802,24.245C216.245,21.917 214.146,21.909 216.802,20.287C213.977,19.923 212.193,22.059 209.673,22.661C209.001,22.822 207.25,22.149 206.503,22.661C205.992,23.014 206.946,25.353 205.714,25.038C203.693,25.902 201.64,22.33 201.756,25.83C201.373,27.817 205.384,23.919 205.714,26.619C203.738,26.829 203.07,29.598 200.963,27.412C199.42,28.847 201.74,29.154 200.171,29.785C199.848,29.917 199.487,29.913 199.115,29.852C198.691,25.038 197.741,19.975 198.484,14.157C198.519,13.316 198.112,12.148 197.692,13.365C198.079,19.472 197.256,24.44 196.647,29.447C196.479,29.508 196.325,29.598 196.212,29.785C196.407,29.789 196.482,29.909 196.596,29.996C196.021,34.848 195.687,39.768 196.899,45.834L196.899,61.48C193.23,61.533 195.093,64.256 193.839,65.428C193.831,64.632 192.449,64.429 192.254,65.428C193.215,65.517 194.124,65.664 193.839,67.009M246.9,28.997L244.522,28.997C243.906,29.177 242.96,29.019 242.938,29.785C244.087,29.357 247.031,30.713 246.9,28.997M262.734,40.876C263.628,39.138 265.811,39.138 266.696,40.876C266.212,40.921 265.758,40.992 265.904,41.669C266.993,41.702 267.644,41.293 268.278,40.876L268.278,39.291C266.885,38.202 259.437,37.755 262.734,40.876M296.003,34.54C295.736,34.893 294.981,33.264 296.003,32.955C293.032,32.279 293.941,37.285 296.003,34.54M237.395,65.428C238.194,65.42 238.39,64.038 237.395,63.843C237.785,66.344 233.462,64.14 234.229,67.013C236.718,67.922 236.151,65.765 237.395,65.428M216.802,77.304C217.274,76.559 220.328,73.224 216.802,73.349C217.834,75.312 214.477,76.635 216.802,77.304M240.564,60.673C238.762,60.451 237.586,60.868 237.395,62.258C238.866,62.152 240.042,61.739 240.564,60.673M133.645,183.433C134.212,186.025 136.89,186.525 139.98,186.599C139.402,184.013 135.553,184.696 133.645,183.433M232.644,60.677C233.128,60.492 237.075,61.387 235.017,59.884C231.513,59.808 229.305,61.029 227.893,63.054C229.346,63.613 230.941,61.326 232.644,60.677M219.179,67.013C218.863,68.109 214.683,69.251 216.802,70.182C216.2,68.166 222.213,68.852 219.179,67.013M198.586,47.212C200.062,47.099 201.237,46.69 201.756,45.627C200.741,45.582 200.659,44.613 199.378,44.839C199.412,45.928 199.007,46.573 198.586,47.212M221.556,37.71C220.621,37.83 219.307,37.575 219.179,38.499C219.795,38.679 220.741,38.521 220.764,39.295C220.147,39.468 219.201,39.309 219.179,40.084L221.556,40.084L221.556,37.71ZM234.229,62.258C233.954,62.768 234.581,63.069 235.017,63.054C237.47,62.941 235.603,59.704 234.229,62.258M193.839,73.349C193.741,73.066 191.821,73.39 192.254,72.556C192.381,72.301 195.453,70.726 193.839,69.386C193.673,70.348 192.96,69.874 192.254,69.386C188.746,73.762 194.281,74.689 193.839,73.349M187.499,65.428L187.499,67.805L189.88,67.805C190.022,66.073 189.227,65.281 187.499,65.428M205.714,40.084C207.742,40.001 209.492,39.633 210.469,38.499C209.132,37.154 206.905,38.965 205.714,40.084M145.532,167.592C145.656,165.609 144.308,165.113 143.15,164.426C143.016,166.405 144.363,166.901 145.532,167.592M141.565,176.306C136.969,175.472 141.235,179.738 141.565,176.306M144.735,190.558C144.698,191.651 145.107,192.298 145.524,192.935L147.109,192.935C146.898,188.534 150.182,194.589 150.275,192.143C148.314,189.766 148.867,189.008 145.524,188.977C145.622,191.167 147.038,191.692 144.735,190.558M143.939,173.136C142.475,174.533 144.146,175.588 145.532,176.306C145.419,174.829 145.002,173.657 143.939,173.136M210.469,40.876C209.327,39.197 208.11,41.773 206.507,42.461C205.087,43.065 201.343,42.269 201.756,44.839C205.211,45.079 205.274,42.491 208.088,44.042C207.396,41.503 210.146,42.397 210.469,40.876M218.387,46.424C216.658,46.273 215.866,47.069 216.009,48.797C217.195,48.662 218.935,49.079 219.179,48.009C218.566,47.824 217.612,47.978 217.594,47.212C218.078,47.167 218.533,47.092 218.387,46.424M227.893,36.918C225.398,36.515 224.794,38.641 223.138,36.918C223.175,38.007 222.766,38.656 222.345,39.291C224.872,39.971 224.794,38.044 226.308,37.71C227.415,37.766 229.334,37.533 227.893,36.918M208.884,56.714C207.036,56.98 205.47,57.525 204.926,59.096C206.773,58.825 208.332,58.28 208.884,56.714M197.797,60.677C199.758,60.793 201.083,60.267 201.756,59.092C199.791,58.972 198.473,59.501 197.797,60.677M250.066,40.876C247.505,39.895 249.462,43.437 246.9,42.457C246.187,42.255 246.483,39.903 246.9,40.084C245.078,39.287 246.272,41.041 242.938,40.876C239.377,40.699 240.53,40.467 238.187,41.669C237.041,42.258 233.413,42.656 235.81,43.254C238.273,42.288 240.831,41.413 244.522,41.669C245.387,42.461 248.41,45.071 249.273,43.254C246.979,42.807 250.486,42.014 250.066,40.876M248.481,54.341C243.411,53.428 246.746,56.76 248.481,54.341M247.692,49.59C245.338,49.401 240.042,50.314 241.356,51.171C244.782,49.653 246.262,54.1 247.692,51.963C247.076,51.787 246.13,51.944 246.107,51.171C247.073,51.081 247.981,50.931 247.692,49.59M145.532,214.321C147.455,213.397 144.642,210.588 143.939,212.736C144.987,212.744 144.664,214.122 145.532,214.321M205.714,55.129C203.746,55.216 203.266,56.616 201.756,55.129C201.988,57.218 198.684,55.761 199.378,58.299C203.13,58.156 202.537,56.88 200.963,56.714C202.342,55.249 204.013,56.917 202.548,58.299C205.03,58.667 204.779,56.308 205.714,55.129M203.341,63.843C203.724,63.212 204.625,64.053 204.926,63.054C205.076,62.536 204.641,61.409 204.129,61.469C203.569,63.843 199.093,66.411 200.171,67.801C202.236,66.802 202.271,65.615 203.341,63.843M216.009,51.963C216.948,51.584 217.804,51.118 218.387,50.382C217.327,50.258 214.022,51.625 216.009,51.963M227.1,77.307C228.099,76.38 227.734,74.02 225.515,74.138C225.624,75.613 226.033,76.789 227.1,77.307M224.726,67.801C220.137,65.517 222.638,69.754 224.726,67.801M224.726,58.299C224.508,59.932 221.215,58.487 221.556,60.677C223.652,61.364 226.363,58.742 224.726,58.299M316.014,70.603C310.943,69.69 314.278,73.021 316.014,70.603M329.479,76.939C330.977,76.586 334.252,78.014 333.44,75.354C332.028,75.79 330.158,75.76 329.479,76.939M371.456,335.122C372.599,337.86 370.57,338.859 372.245,340.669C371.625,338.716 375.126,335.185 371.456,335.122M338.195,383.436C338.308,384.488 335.528,386.385 337.399,386.602C337.444,386.118 337.52,385.667 338.195,385.809C338.368,386.422 338.21,387.372 338.984,387.394C340.576,385.78 338.631,385.84 338.195,384.224C338.631,384.232 339.089,383.587 338.195,383.436M317.599,392.938C318.992,392.48 322.256,393.896 322.354,392.141L319.979,392.141C319.041,392.269 317.734,392.007 317.599,392.938M453.028,162.473C453.077,161.988 453.148,161.534 453.82,161.681C453.783,163.044 454.433,163.705 455.405,164.057C456.435,161.233 450.402,159.933 453.028,162.473M380.162,295.524C381.529,295.566 382.198,294.913 382.543,293.94C381.18,293.898 380.516,294.549 380.162,295.524M322.354,389.768C318.278,391.683 325.08,391.815 322.354,389.768M403.133,82.482C402.303,82.437 402.509,81.465 403.929,81.694C403.215,84.871 409.803,89.469 410.261,88.026C410.254,87.898 410.25,87.88 410.238,87.793C410.171,87.347 410.193,87.256 410.238,87.793C410.403,88.814 411.103,91.406 413.431,91.196C413.254,89.701 414.325,89.449 414.224,88.026C412.8,88.124 412.372,87.237 412.643,85.648C408.376,85.682 407.951,81.889 404.722,80.897C402.231,77.209 400.459,84.98 403.133,82.482M402.34,89.611C398.468,86.614 399.434,92.39 402.34,89.611M461.737,181.477C462.752,182.634 464.006,187.592 464.907,186.232C463.172,185.323 465.688,180.17 461.737,181.477M416.601,125.246C417.097,122.842 415.895,118.121 414.224,120.498C416.965,120.123 414.678,124.799 416.601,125.246M453.024,163.262C452.791,166.401 453.993,168.106 455.405,169.601C454.245,167.858 455.499,163.693 453.024,163.262M463.322,179.895C462.278,179.889 462.602,178.506 461.737,178.311C460.836,179.937 462.984,182.086 463.322,179.895M456.99,159.303C454.437,156.64 454.343,150.747 451.443,149.801C452.491,152.918 452.146,153.256 449.858,151.386C449.55,153.808 452.063,153.955 453.028,155.345C455.008,158.191 456.66,163.239 457.779,166.435C458.207,167.656 456.502,169.976 459.364,169.601C457.682,167.727 459.529,164.82 459.364,164.057C459.255,163.524 456.931,159.243 456.99,159.303M335.025,64.266C331.822,61.48 333.155,66.817 335.025,64.266M163.961,258.302C164.326,255.819 161.967,256.066 160.791,255.136C161.059,256.972 161.303,258.846 163.961,258.302M461.737,166.432C461.497,166.615 461.903,167.738 461.737,168.016C461.67,168.133 460.536,168.61 461.737,168.808C463.465,169.095 463.338,165.215 461.737,166.432M319.977,58.724C315.36,58.562 316.412,59.647 318.395,59.515C322.616,59.234 321.906,57.454 319.977,58.724M384.129,95.947C382.994,95.756 382.791,94.643 381.755,94.362C381.057,95.992 383.806,97.915 384.129,95.947M378.585,360.466C377.143,362.926 375.287,361.754 374.619,359.674C373.932,359.365 372.05,361.39 370.664,361.259C370.394,361.235 369.417,358.726 369.079,360.466C371.539,360.95 368.29,368.826 369.871,366.006C372.072,366.366 369.252,361.694 371.456,362.055C372.782,365.217 377.181,361.721 377.789,364.429C376.298,361.762 381.372,361.829 378.585,360.466M374.623,365.217C375.377,366.689 372.253,367.865 374.623,368.39C374.859,367.902 376.591,365.341 374.623,365.217M400.759,293.94C400.643,294.875 399.347,295.735 400.759,296.317C400.872,295.382 402.164,294.518 400.759,293.94M379.374,350.964C377.188,350.427 377.567,350.821 376.204,348.586C376.245,349.68 375.832,350.325 375.415,350.964C376.992,351.489 378.795,353.694 379.374,350.964M239.989,396.896C238.63,396.855 237.954,397.505 237.608,398.478C238.976,398.523 239.641,397.87 239.989,396.896M246.325,396.108C246.63,395.244 247.271,394.2 246.325,395.311C241.8,394.756 241.8,396.66 246.325,396.108M367.498,370.765C365.826,372.969 362.935,376.104 364.328,377.892C365.812,376.987 364.951,374.497 365.913,373.138C366.07,372.92 367.378,373.371 367.498,373.138C368.347,371.5 367.746,370.494 369.079,369.18C369.48,368.785 370.811,369.329 370.664,368.39C368.52,366.134 368.79,369.059 367.498,370.765M388.876,316.118C387.426,315.896 389.033,317.496 388.876,317.703C388.681,317.954 388.433,318.157 388.177,318.36C389.784,317.511 391.527,316.44 388.876,316.118M386.502,319.284C386.479,319.299 386.461,319.317 386.442,319.333C387.08,319.073 387.674,318.758 388.177,318.36C387.456,318.739 386.765,319.081 386.502,319.284M457.783,240.086C456.697,242.463 450.681,244.041 452.235,246.422C453.625,243.852 456.194,242.463 458.571,240.879C458.609,240.037 458.199,238.865 457.783,240.086M433.228,245.633C433.441,243.999 436.176,244.882 436.397,243.252C434.298,242.564 431.594,245.19 433.228,245.633M428.477,249.588C428.169,250.719 427.522,250.929 428.477,251.966C426.381,251.976 423.815,251.526 423.729,253.551C426.298,252.833 429.333,253.648 430.854,250.381C429.761,250.414 429.115,250.005 428.477,249.588M431.646,231.376C432.033,232.015 431.504,232.834 432.436,232.961C431.883,232.886 433.307,231.76 433.231,232.165C433.254,232.015 430.062,228.743 431.646,231.376M422.865,236.259C423.369,236.686 423.447,236.247 422.865,236.259M235.234,393.734C236.271,391.282 232.988,389.235 232.064,391.353C233.594,391.677 232.136,394.977 235.234,393.734M145.738,187.02C145.517,184.624 150.332,177.759 148.116,179.103C147.657,181.582 143.635,184.609 145.738,187.02M186.132,341.458C186.087,342.472 185.117,342.555 185.343,343.835L186.928,343.835C187.814,342.689 187.78,341.905 186.132,341.458M230.483,396.108C231.854,397.486 235.385,396.983 236.031,395.311C233.665,395.526 231.201,393.099 230.483,396.108M234.442,398.478C232.347,398.143 229.635,397.61 231.272,399.274C231.321,398.79 231.396,398.335 232.064,398.478C231.686,400.273 234.056,403.236 235.234,400.859C233.59,400.412 233.56,399.62 234.442,398.478" style="fill:rgb(35,31,32);"/>
        </g>
        <g id="menu-24px" transform="matrix(7.8273,0,0,8.24451,293.149,282.919)">
            <g transform="matrix(1,0,0,1,-12,-12)">
                <rect x="0" y="0" width="24" height="24" style="fill:none;fill-rule:nonzero;"/>
                <path d="M3,18L21,18L21,16L3,16L3,18ZM3,13L21,13L21,11L3,11L3,13ZM3,6L3,8L21,8L21,6L3,6Z" style="fill:white;fill-rule:nonzero;"/>
            </g>
        </g>
    </g>
</svg>
