<svg width="16" height="12" viewBox="0 0 16 12" fill="none" xmlns="http://www.w3.org/2000/svg">
<path d="M15.4937 2.95259C15.4937 2.95259 15.3473 1.90497 14.8963 1.44069C14.3282 0.833543 13.6897 0.833543 13.391 0.797828C11.3 0.643066 8.15478 0.643066 8.15478 0.643066H8.14893C8.14893 0.643066 5.00367 0.643066 2.90098 0.797828C2.60812 0.833543 1.9697 0.833543 1.39571 1.44069C0.950567 1.90497 0.80414 2.95259 0.80414 2.95259C0.80414 2.95259 0.651855 4.19069 0.651855 5.42283V6.57759C0.651855 7.80973 0.80414 9.04188 0.80414 9.04188C0.80414 9.04188 0.950567 10.0895 1.40156 10.5538C1.9697 11.1609 2.71941 11.1431 3.05326 11.2026C4.25396 11.3216 8.14893 11.3574 8.14893 11.3574C8.14893 11.3574 11.3 11.3514 13.3969 11.1966C13.6897 11.1609 14.3282 11.1609 14.9021 10.5538C15.3531 10.0895 15.4996 9.04188 15.4996 9.04188C15.4996 9.04188 15.6519 7.80973 15.6519 6.57759V5.42283C15.646 4.19069 15.4937 2.95259 15.4937 2.95259ZM6.60266 7.9764V3.69664L10.6558 5.84545L6.60266 7.9764Z" fill="#ECF4FF"/>
</svg>
