<?xml version="1.0" encoding="UTF-8" standalone="no"?>
<!DOCTYPE svg PUBLIC "-//W3C//DTD SVG 1.1//EN" "http://www.w3.org/Graphics/SVG/1.1/DTD/svg11.dtd">
<svg width="100%" height="100%" viewBox="0 0 1800 2070" version="1.1" xmlns="http://www.w3.org/2000/svg" xmlns:xlink="http://www.w3.org/1999/xlink" xml:space="preserve" xmlns:serif="http://www.serif.com/" style="fill-rule:evenodd;clip-rule:evenodd;stroke-linejoin:round;stroke-miterlimit:2;">
    <rect x="0" y="0" width="1800" height="2069.38" style="fill:rgb(128,128,128);"/>
    <g transform="matrix(14.8922,0,0,14.8922,-12301.6,-11409.1)">
        <circle cx="886.162" cy="812.882" r="21.343" style="fill:rgb(206,206,174);"/>
    </g>
    <g transform="matrix(1.14404,0,0,1.14404,-137.68,-223.927)">
        <path d="M1079.98,1240.26C1139.16,1260.57 1144.57,1301.79 1138.65,1348.55C1132.72,1395.31 1083.78,1422.36 1062.9,1418C1041.64,1395.93 1029.67,1378.1 1037.77,1360.39C1070,1364.26 1092.39,1346.8 1090.89,1321.12C1089.39,1295.43 1079.79,1272.99 1052.11,1289.32C1024.43,1305.65 1008.59,1330.97 1024.43,1387.51C1040.27,1444.06 1120.44,1516.07 1111.15,1600.48C1089.6,1659.77 1023.44,1660.82 992.047,1654.64C1058.48,1530.37 911.214,1511.15 945.992,1333.14C958.829,1267.44 1041.1,1226.91 1079.98,1240.26Z"/>
    </g>
    <g transform="matrix(1.14404,0,0,1.14404,-137.68,-223.927)">
        <path d="M945.252,1271.14C940.662,1168.37 1053.45,1070.69 991.264,912.171C1111.14,1028.65 1037.18,1133.18 1014.94,1222.59C995.136,1230.76 969.089,1246.3 945.252,1271.14Z"/>
    </g>
    <g transform="matrix(1.14404,0,0,1.14404,-137.68,-223.927)">
        <path d="M833.814,1269.99C817.817,1257.43 745.806,1244.98 725.675,1306.38C705.917,1366.64 725.607,1430.69 804.62,1444.27C874.966,1456.35 923.796,1315.53 912.278,1237.11C893.127,1106.72 705.039,1099.14 800.3,956.213C755.269,933.338 678.302,1041.66 816.057,1178.96C914.918,1277.5 847.091,1335.89 827.575,1359.57C808.059,1383.24 771.346,1377.08 773.906,1345.57C776.465,1314.06 804.939,1308.22 827.815,1328.45C850.53,1300.94 839.173,1294.62 833.814,1269.99Z"/>
    </g>
    <g transform="matrix(1.14404,0,0,1.14404,-137.68,-223.927)">
        <path d="M1107.18,1974.83C1074.04,1821.84 1195.49,1632 1248.05,1537.88C1300.61,1443.77 1278.72,1318.12 1232.22,1239.09C1185.72,1160.06 1174.09,1001.14 1190.42,908.385C1206.74,815.63 1238.53,694.8 1074.29,684.412C1195.49,593.635 1276.62,739.694 1272.17,832.202C1269.12,895.45 1233.58,1071.14 1276.12,1149.92C1318.67,1228.7 1405.99,1382.43 1353.18,1512.04C1300.37,1641.65 1212.93,1733.66 1216.27,1860.67C1201.09,1977.27 1132.27,1977.88 1107.18,1974.83Z"/>
    </g>
    <g transform="matrix(1.14404,0,0,1.14404,-137.68,-223.927)">
        <path d="M768.764,1472.32C806.147,1468.19 855.777,1465.56 881.838,1424.83C840.468,1512.05 773.104,1532.86 799.687,1635.95C794.739,1678.93 762.811,1688.22 737.39,1681.88C702.609,1595.27 719.632,1510.34 768.764,1472.32Z"/>
    </g>
    <g transform="matrix(1.14404,0,0,1.14404,-137.68,-223.927)">
        <path d="M635.545,2002.55C576.018,2015.72 548.204,1959.97 548.204,1959.97C551.66,1891.34 579.851,1772.27 541.395,1652.58C502.94,1532.88 435.19,1414.47 440.293,1273.46C448.028,1059.74 497.861,956.993 748.867,859.129C618.242,957.094 494.026,967.649 507.471,1251.85C516.131,1434.9 550.971,1453.99 608.025,1606C662.756,1751.83 664.008,1862.54 635.545,2002.55Z"/>
    </g>
    <g transform="matrix(1.14404,0,0,1.14404,-137.68,-223.927)">
        <path d="M434.654,1136.45C416.519,1021.21 251.345,948.879 217.24,815.104C183.136,681.33 208.038,542.209 337.349,446.868C466.661,351.528 587.243,367.835 650.918,416.013C714.592,464.191 711.412,534.157 719.058,564.742C726.704,595.327 771.568,605.138 820.829,573.403C776.507,636.197 699.771,657.18 671.015,572.591C632.783,460.131 539.125,428.306 412.865,486.453C265.234,554.442 248.576,776.956 349.732,874.853C429.579,952.127 451.097,977.366 471.262,1031.57C453.127,1061.2 439.459,1085.5 434.654,1136.45Z"/>
    </g>
    <g transform="matrix(1.14404,0,0,1.14404,-137.68,-223.927)">
        <path d="M1401.29,1824.05C1447.56,1744.53 1512.25,1615.32 1512.82,1514.11C1513.29,1428.62 1470.8,1287.39 1513.35,1196.8C1555.9,1106.22 1634.61,1039.67 1646.6,921.52C1658.58,803.372 1660.75,704.682 1653.76,672.752C1631.05,706.883 1612.99,726.132 1590.6,743.948C1594.86,810.393 1595.21,919.249 1544.55,999.424C1493.89,1079.6 1416.38,1158.76 1401.21,1237.99C1384.46,1325.49 1429.86,1449.69 1415.12,1524.8C1400.37,1599.91 1322.38,1761.4 1300.65,1809.17C1300.65,1861.64 1369.57,1855.77 1401.29,1824.05Z"/>
    </g>
    <g transform="matrix(1.14404,0,0,1.14404,-137.68,-223.927)">
        <path d="M1528.19,1430.3C1557.96,1357.53 1604.99,1306.18 1637.07,1267.21C1664.99,1233.29 1720.85,1099.12 1641.77,1012.77C1626.16,1043.24 1605.47,1085.7 1593.14,1101.26C1626.12,1178.76 1529.57,1280.82 1511.87,1298.37C1505.23,1324.77 1516.74,1395.14 1528.19,1430.3Z"/>
    </g>
    <g transform="matrix(1.14404,0,0,1.14404,-137.68,-223.927)">
        <path d="M1544.23,963.378C1538.38,980.108 1511.83,1014.45 1495.21,1038.98C1435.77,1020.87 1332.53,994.826 1285.16,887.247C1289.93,834.516 1281.81,743.632 1253.64,709.608C1247.75,663.689 1252.48,626.598 1254.98,607.045C1269.03,682.505 1305.21,723.832 1341.81,741.303C1337.18,829.367 1430.71,945.046 1544.23,963.378Z"/>
    </g>
    <g transform="matrix(1.14404,0,0,1.14404,-137.68,-223.927)">
        <path d="M1279.24,502.356C1307.7,462.336 1332.74,444.768 1364.54,434.041C1347.9,337.292 1303.89,235.592 1205.52,219.192C1107.15,202.792 1043.07,261.336 981.557,330.82C929.25,389.91 870.641,551.01 919.67,634.098C944.769,462.867 1019.76,293.196 1161.65,296.256C1324.45,299.766 1274.01,482.125 1279.24,502.356Z"/>
    </g>
    <g transform="matrix(1.14404,0,0,1.14404,-137.68,-223.927)">
        <path d="M487.337,1565.6C478.672,1663.76 444.604,1836.81 464.051,1938.87C420.87,1954.61 341.621,1915.72 350.374,1821.99C371.839,1734.02 434.364,1486.98 441.945,1430.26C452.826,1491.85 468.924,1535.02 487.337,1565.6Z"/>
    </g>
    <g transform="matrix(1.14404,0,0,1.14404,-137.68,-223.927)">
        <path d="M248.358,1536.76C264.692,1427.08 271.371,1316.89 192.791,1233.65C108.447,1144.29 77.753,963.214 211.836,862.87C231.016,892.502 237.409,909.219 251.923,923.56C202.592,972.804 181.092,1083.69 275.175,1192.15C369.258,1300.62 372.201,1436.6 326.185,1608.15C305.024,1612.72 258.527,1606.49 248.358,1536.76Z"/>
    </g>
    <g transform="matrix(1.14404,0,0,1.14404,-137.68,-223.927)">
        <path d="M374.053,876.191C457.325,866.498 590.857,859.875 620.937,760.289C651.017,660.703 589.167,561.944 544.288,545.697C499.41,529.45 392.922,537.177 369.672,539.73C351.735,561.772 342.766,575.984 338.661,604.442C418.311,594.473 512.173,585.539 540.666,656.805C569.159,728.071 546.461,751.355 524.143,768.119C501.824,784.884 339.972,786.988 326.622,804.822C339.489,825.381 358.461,854.149 374.053,876.191Z"/>
    </g>
    <g transform="matrix(1.14404,0,0,1.14404,-137.68,-223.927)">
        <path d="M216.574,560.744C99.324,308.558 337.36,215.246 412.878,207.549C488.397,199.851 549.534,201.847 564.106,195.733C502.208,242.963 475.242,240.649 439.614,247.462C333.505,267.752 207.683,338.328 256.139,509.269C241.377,525.044 223.86,552.16 216.574,560.744Z"/>
    </g>
    <g transform="matrix(1.14404,0,0,1.14404,-137.68,-223.927)">
        <path d="M1574.97,622.874C1547.74,578.37 1513.5,500.045 1428.46,514.623C1343.42,529.2 1355.96,614.235 1377.13,644.585C1398.3,674.936 1540.79,738.687 1611.78,595.807C1680.31,457.864 1620.49,336.124 1587.58,258.669C1690.58,325.155 1703.1,506.149 1688.88,554.911C1650.86,685.273 1585.5,748.44 1522.06,757.541C1458.62,766.643 1243.66,732.667 1272.23,554.768C1331.62,381.703 1568.15,422.117 1614.31,551.182C1604.63,586.623 1587.7,612.191 1574.97,622.874Z"/>
    </g>
</svg>
